<svg width="22" height="16" viewBox="0 0 22 16">
<path d="M18.9511 1.77432C17.0474 0.267012 14.0358 0.0115054 13.9069 0.00231418C13.707 -0.0142293 13.5165 0.0960617 13.4343 0.278042C13.4268 0.289071 13.3614 0.437963 13.2886 0.669574C14.5477 0.879127 16.0946 1.30007 17.4939 2.15482C17.7181 2.29085 17.7872 2.58128 17.6489 2.80186C17.5574 2.94708 17.4023 3.02612 17.2417 3.02612C17.1557 3.02612 17.0679 3.00222 16.9895 2.95443C14.5832 1.48573 11.5791 1.4122 11 1.4122C10.4209 1.4122 7.41491 1.48573 5.01053 2.95443C4.78635 3.0923 4.49117 3.02428 4.35292 2.8037C4.21281 2.58128 4.28193 2.29269 4.50611 2.15482C5.9054 1.30191 7.45228 0.879127 8.71145 0.671412C8.63859 0.437964 8.5732 0.290909 8.5676 0.278042C8.48353 0.0960617 8.29484 -0.0179055 8.09307 0.00231418C7.96416 0.0115054 4.95262 0.267012 3.02276 1.79454C2.0158 2.71179 0 8.07193 0 12.706C0 12.7887 0.0224185 12.8677 0.0635192 12.9394C1.45346 15.3438 5.24779 15.9724 6.11277 16C6.11651 16 6.12211 16 6.12772 16C6.28091 16 6.42476 15.9283 6.51444 15.807L7.38876 14.6232C5.02921 14.024 3.82422 13.0056 3.7551 12.9449C3.55707 12.774 3.53838 12.4762 3.71399 12.2814C3.88774 12.0865 4.19039 12.0681 4.38842 12.2391C4.41644 12.2648 6.63587 14.1177 11 14.1177C15.3716 14.1177 17.591 12.2575 17.6135 12.2391C17.8115 12.07 18.1123 12.0865 18.2879 12.2832C18.4616 12.478 18.4429 12.774 18.2449 12.9449C18.1758 13.0056 16.9708 14.024 14.6112 14.6232L15.4856 15.807C15.5752 15.9283 15.7191 16 15.8723 16C15.8779 16 15.8835 16 15.8872 16C16.7522 15.9724 20.5465 15.3438 21.9365 12.9394C21.9776 12.8677 22 12.7887 22 12.706C22 8.07193 19.9842 2.71179 18.9511 1.77432ZM7.8913 10.8237C6.96654 10.8237 6.21739 9.9818 6.21739 8.94139C6.21739 7.90098 6.96654 7.05909 7.8913 7.05909C8.81607 7.05909 9.56522 7.90098 9.56522 8.94139C9.56522 9.9818 8.81607 10.8237 7.8913 10.8237ZM14.1087 10.8237C13.1839 10.8237 12.4348 9.9818 12.4348 8.94139C12.4348 7.90098 13.1839 7.05909 14.1087 7.05909C15.0335 7.05909 15.7826 7.90098 15.7826 8.94139C15.7826 9.9818 15.0335 10.8237 14.1087 10.8237Z"/>
</svg>
