<svg width="21" height="21" viewBox="0 0 21 21">
<path fill-rule="evenodd" clip-rule="evenodd" d="M4.97533 2.10765C4.69155 1.96412 4.35642 1.96412 4.07263 2.10765C3.96591 2.16163 3.83287 2.27689 3.24585 2.86392L3.08822 3.02155C2.528 3.58177 2.37699 3.74379 2.25628 3.95868C2.11637 4.20774 1.99915 4.65848 2 4.94416C2.00076 5.19836 2.03829 5.35145 2.20355 5.9337C3.01916 8.80727 4.55775 11.5191 6.82208 13.7834C9.0864 16.0477 11.7982 17.5863 14.6718 18.4019C15.254 18.5672 15.4071 18.6047 15.6613 18.6055C15.947 18.6063 16.3977 18.4891 16.6468 18.3492C16.8617 18.2285 17.0237 18.0775 17.5839 17.5172L17.7415 17.3596C18.3286 16.7726 18.4438 16.6395 18.4978 16.5328C18.6413 16.249 18.6413 15.9139 18.4978 15.6301C18.4438 15.5234 18.3286 15.3904 17.7415 14.8033L18.4486 14.0962L17.7415 14.8033L17.5467 14.6085C17.161 14.2228 17.0742 14.1438 17.0085 14.101C16.6771 13.8856 16.2498 13.8856 15.9183 14.101C15.8526 14.1438 15.7659 14.2228 15.3801 14.6085C15.3725 14.6161 15.3647 14.6239 15.3567 14.632C15.267 14.722 15.1534 14.836 15.017 14.9337L14.4348 14.1207L15.0169 14.9337C14.53 15.2824 13.8679 15.3953 13.2929 15.2277C13.1325 15.181 13.0005 15.1173 12.8978 15.0678C12.8897 15.0639 12.8817 15.0601 12.874 15.0563C11.324 14.3122 9.87232 13.2981 8.58985 12.0156C7.30737 10.7331 6.29328 9.28145 5.54911 7.73149C5.54539 7.72373 5.54156 7.71579 5.53764 7.70767C5.48814 7.60498 5.4245 7.47297 5.37775 7.3126L6.33779 7.03274L5.37775 7.31259C5.21012 6.73756 5.32302 6.0755 5.67173 5.58851L5.67173 5.58851C5.76943 5.45207 5.88345 5.33846 5.97351 5.24872C5.98154 5.24073 5.98937 5.23292 5.99698 5.22531C6.38269 4.8396 6.46167 4.75287 6.50441 4.68714L6.50441 4.68714C6.7199 4.35569 6.7199 3.9284 6.50441 3.59696C6.46167 3.53122 6.38269 3.4445 5.99698 3.05879L5.80211 2.86392C5.21509 2.27689 5.08205 2.16163 4.97533 2.10765ZM3.16994 0.322954C4.02128 -0.107651 5.02668 -0.107652 5.87802 0.322954C6.31062 0.541759 6.68617 0.918273 7.12061 1.35383C7.15219 1.38549 7.18408 1.41746 7.21633 1.4497L7.4112 1.64457C7.43244 1.66582 7.45349 1.68683 7.47433 1.70764C7.76099 1.99381 8.00792 2.24033 8.18116 2.50677L7.34279 3.05187L8.18116 2.50678C8.82765 3.50111 8.82765 4.78298 8.18116 5.77732C8.00792 6.04377 7.76099 6.29028 7.47434 6.57645C7.4535 6.59726 7.43244 6.61827 7.4112 6.63952C7.35359 6.69713 7.3242 6.72667 7.30373 6.74833C7.30336 6.74996 7.30299 6.75176 7.30266 6.75371C7.30229 6.75588 7.30202 6.75788 7.30183 6.75969C7.30512 6.76701 7.30958 6.77668 7.31573 6.78974C7.32534 6.81017 7.33664 6.8337 7.35207 6.86584C7.99989 8.21512 8.88338 9.48072 10.0041 10.6014C11.1247 11.7221 12.3903 12.6056 13.7396 13.2534L13.3068 14.1549L13.7396 13.2534C13.7718 13.2688 13.7953 13.2801 13.8157 13.2897C13.8288 13.2959 13.8385 13.3003 13.8458 13.3036C13.8476 13.3034 13.8496 13.3032 13.8517 13.3028C13.8537 13.3025 13.8555 13.3021 13.8571 13.3017C13.8788 13.2813 13.9083 13.2519 13.9659 13.1943C13.9872 13.173 14.0082 13.152 14.029 13.1311C14.3152 12.8445 14.5617 12.5975 14.8281 12.4243C15.8225 11.7778 17.1043 11.7778 18.0987 12.4243C18.3651 12.5975 18.6116 12.8445 18.8978 13.1311C18.9186 13.152 18.9396 13.173 18.9609 13.1943L18.2538 13.9014L18.9609 13.1943L19.1558 13.3891C19.188 13.4214 19.22 13.4533 19.2516 13.4848C19.6872 13.9193 20.0637 14.2948 20.2825 14.7274C20.7131 15.5788 20.7131 16.5842 20.2825 17.4355C20.0637 17.8681 19.6872 18.2437 19.2516 18.6781C19.22 18.7097 19.188 18.7416 19.1558 18.7738L18.9981 18.9315C18.9753 18.9543 18.9527 18.9769 18.9304 18.9992C18.4652 19.4649 18.1084 19.8221 17.6263 20.0929C17.0764 20.4018 16.2861 20.6073 15.6554 20.6054C15.1035 20.6038 14.701 20.4894 14.182 20.3419C14.1634 20.3366 14.1446 20.3313 14.1257 20.3259C10.9324 19.4196 7.9195 17.7092 5.40787 15.1976C2.89623 12.686 1.18588 9.67302 0.279547 6.47979C0.274173 6.46086 0.268839 6.44209 0.263547 6.42347C0.116041 5.90447 0.00165415 5.50199 1.27536e-05 4.95011C-0.00186444 4.31934 0.203641 3.5291 0.512571 2.97915L0.512572 2.97915C0.783371 2.49708 1.14053 2.14029 1.60626 1.67504C1.62859 1.65273 1.65117 1.63017 1.674 1.60734L1.83164 1.4497C1.86388 1.41746 1.89577 1.38549 1.92735 1.35383C2.36179 0.918273 2.73735 0.541759 3.16994 0.322954L3.61617 1.20519L3.16994 0.322954Z"/>
</svg>
