<svg width="19" height="19" viewBox="0 0 19 19">
<path fill-rule="evenodd" clip-rule="evenodd" d="M5.42518 0.0553846C6.40951 0.0100699 6.72336 0 9.23077 0C11.7382 0 12.052 0.0109091 13.0355 0.0553846C14.019 0.0998601 14.6904 0.256783 15.2778 0.484196C15.8929 0.716644 16.4509 1.08 16.9125 1.54993C17.3824 2.01063 17.7449 2.56783 17.9765 3.18378C18.2048 3.77119 18.3608 4.44252 18.4062 5.42434C18.4515 6.41035 18.4615 6.7242 18.4615 9.23077C18.4615 11.7382 18.4506 12.052 18.4062 13.0364C18.3617 14.0182 18.2048 14.6895 17.9765 15.2769C17.7449 15.8929 17.3818 16.4511 16.9125 16.9125C16.4509 17.3824 15.8929 17.7449 15.2778 17.9765C14.6904 18.2048 14.019 18.3608 13.0372 18.4062C12.052 18.4515 11.7382 18.4615 9.23077 18.4615C6.72336 18.4615 6.40951 18.4506 5.42518 18.4062C4.44336 18.3617 3.77203 18.2048 3.18462 17.9765C2.56861 17.7449 2.01048 17.3818 1.54909 16.9125C1.07948 16.4515 0.716068 15.8936 0.484196 15.2778C0.256783 14.6904 0.100699 14.019 0.0553846 13.0372C0.0100699 12.0512 0 11.7373 0 9.23077C0 6.72336 0.0109091 6.40951 0.0553846 5.42601C0.0998601 4.44252 0.256783 3.77119 0.484196 3.18378C0.716411 2.5679 1.0801 2.01005 1.54993 1.54909C2.01066 1.07958 2.56823 0.716176 3.18378 0.484196C3.77119 0.256783 4.44252 0.100699 5.42434 0.0553846H5.42518ZM12.9608 1.71692C11.9874 1.67245 11.6954 1.66322 9.23077 1.66322C6.76616 1.66322 6.47413 1.67245 5.5007 1.71692C4.60028 1.75804 4.11189 1.90825 3.78629 2.03497C3.3558 2.2028 3.04783 2.40168 2.72476 2.72476C2.4185 3.0227 2.18281 3.38541 2.03497 3.78629C1.90825 4.11189 1.75804 4.60028 1.71692 5.5007C1.67245 6.47413 1.66322 6.76616 1.66322 9.23077C1.66322 11.6954 1.67245 11.9874 1.71692 12.9608C1.75804 13.8613 1.90825 14.3497 2.03497 14.6752C2.18266 15.0755 2.41846 15.4389 2.72476 15.7368C3.02266 16.0431 3.38601 16.2789 3.78629 16.4266C4.11189 16.5533 4.60028 16.7035 5.5007 16.7446C6.47413 16.7891 6.76532 16.7983 9.23077 16.7983C11.6962 16.7983 11.9874 16.7891 12.9608 16.7446C13.8613 16.7035 14.3497 16.5533 14.6752 16.4266C15.1057 16.2587 15.4137 16.0599 15.7368 15.7368C16.0431 15.4389 16.2789 15.0755 16.4266 14.6752C16.5533 14.3497 16.7035 13.8613 16.7446 12.9608C16.7891 11.9874 16.7983 11.6954 16.7983 9.23077C16.7983 6.76616 16.7891 6.47413 16.7446 5.5007C16.7035 4.60028 16.5533 4.11189 16.4266 3.78629C16.2587 3.3558 16.0599 3.04783 15.7368 2.72476C15.4388 2.41852 15.0761 2.18283 14.6752 2.03497C14.3497 1.90825 13.8613 1.75804 12.9608 1.71692ZM8.05175 12.0764C8.71021 12.3505 9.4434 12.3875 10.1261 12.181C10.8088 11.9746 11.3987 11.5376 11.7949 10.9445C12.1912 10.3515 12.3693 9.63933 12.2988 8.9296C12.2283 8.21987 11.9136 7.55662 11.4084 7.05315C11.0864 6.73131 10.697 6.48488 10.2683 6.33159C9.83954 6.17831 9.38218 6.12198 8.92909 6.16667C8.476 6.21136 8.03845 6.35595 7.64795 6.59004C7.25745 6.82413 6.9237 7.14188 6.67074 7.52044C6.41779 7.89899 6.25191 8.32892 6.18505 8.77927C6.11819 9.22962 6.15202 9.6892 6.28409 10.1249C6.41616 10.5606 6.6432 10.9616 6.94886 11.2991C7.25451 11.6365 7.63118 11.902 8.05175 12.0764ZM5.8758 5.8758C6.31639 5.43522 6.83943 5.08574 7.41508 4.8473C7.99072 4.60886 8.6077 4.48613 9.23077 4.48613C9.85385 4.48613 10.4708 4.60886 11.0465 4.8473C11.6221 5.08574 12.1452 5.43522 12.5857 5.8758C13.0263 6.31639 13.3758 6.83943 13.6142 7.41508C13.8527 7.99072 13.9754 8.6077 13.9754 9.23077C13.9754 9.85385 13.8527 10.4708 13.6142 11.0465C13.3758 11.6221 13.0263 12.1452 12.5857 12.5857C11.6959 13.4755 10.4891 13.9754 9.23077 13.9754C7.97241 13.9754 6.7656 13.4755 5.8758 12.5857C4.98601 11.6959 4.48613 10.4891 4.48613 9.23077C4.48613 7.97241 4.98601 6.7656 5.8758 5.8758ZM15.0277 5.19273C15.1369 5.08974 15.2243 4.96589 15.2847 4.82851C15.3452 4.69113 15.3775 4.54302 15.3797 4.39295C15.3818 4.24287 15.3539 4.09389 15.2975 3.95481C15.241 3.81573 15.1573 3.68938 15.0512 3.58325C14.945 3.47712 14.8187 3.39336 14.6796 3.33694C14.5405 3.28051 14.3915 3.25257 14.2415 3.25476C14.0914 3.25694 13.9433 3.28922 13.8059 3.34968C13.6685 3.41013 13.5447 3.49754 13.4417 3.60671C13.2414 3.81905 13.1317 4.10108 13.136 4.39295C13.1402 4.68482 13.2581 4.96354 13.4645 5.16994C13.6709 5.37634 13.9496 5.49418 14.2415 5.49843C14.5333 5.50269 14.8154 5.39303 15.0277 5.19273Z"/>
</svg>
