<svg width="22" height="18" viewBox="0 0 22 18">
<path fill-rule="evenodd" clip-rule="evenodd" d="M5.75879 4.31292e-07H16.2414C17.0464 -1.23241e-05 17.7107 -2.28137e-05 18.2519 0.0441945C18.814 0.0901197 19.3307 0.188684 19.816 0.435975C20.5687 0.819468 21.1806 1.43139 21.5641 2.18404C21.8027 2.65238 21.9029 3.14994 21.9509 3.68931C22.0043 3.8527 22.0137 4.02505 21.9819 4.18959C22.0001 4.63971 22.0001 5.16035 22.0001 5.75868V12.2413C22.0001 13.0463 22.0001 13.7106 21.9559 14.2518C21.91 14.8139 21.8114 15.3306 21.5641 15.816C21.1806 16.5686 20.5687 17.1805 19.816 17.564C19.3307 17.8113 18.814 17.9099 18.2519 17.9558C17.7107 18 17.0464 18 16.2414 18H5.75876C4.9538 18 4.28945 18 3.74826 17.9558C3.18616 17.9099 2.66946 17.8113 2.18412 17.564C1.43148 17.1805 0.819553 16.5686 0.43606 15.816C0.188769 15.3306 0.0902046 14.8139 0.0442794 14.2518C6.2082e-05 13.7106 7.25738e-05 13.0463 8.53292e-05 12.2413V5.7587C7.57925e-05 5.16037 6.75675e-05 4.63972 0.0182226 4.1896C-0.0135336 4.02505 -0.00416067 3.85269 0.0493014 3.6893C0.0972895 3.14993 0.197428 2.65238 0.43606 2.18404C0.819553 1.43139 1.43148 0.819468 2.18412 0.435975C2.66946 0.188684 3.18616 0.0901197 3.74826 0.0441945C4.28946 -2.28137e-05 4.95382 -1.23241e-05 5.75879 4.31292e-07ZM2.00009 5.92066V12.2C2.00009 13.0566 2.00086 13.6389 2.03764 14.089C2.07346 14.5274 2.13838 14.7516 2.21807 14.908C2.40982 15.2843 2.71578 15.5903 3.0921 15.782C3.2485 15.8617 3.47271 15.9266 3.91112 15.9624C4.36121 15.9992 4.94351 16 5.80009 16H16.2001C17.0567 16 17.639 15.9992 18.089 15.9624C18.5275 15.9266 18.7517 15.8617 18.9081 15.782C19.2844 15.5903 19.5904 15.2843 19.7821 14.908C19.8618 14.7516 19.9267 14.5274 19.9625 14.089C19.9993 13.6389 20.0001 13.0566 20.0001 12.2V5.92066L13.4086 10.5347C13.3698 10.5618 13.3314 10.5888 13.2933 10.6156C12.7486 10.998 12.2704 11.3338 11.7257 11.4696C11.2492 11.5884 10.7509 11.5884 10.2745 11.4696C9.72979 11.3338 9.25154 10.998 8.70689 10.6156C8.66878 10.5888 8.63035 10.5618 8.59154 10.5347L2.00009 5.92066ZM19.9173 3.53728L12.2617 8.89621C11.5328 9.40647 11.3783 9.49501 11.242 9.529C11.0831 9.56859 10.917 9.56859 10.7582 9.529C10.6218 9.49501 10.4674 9.40647 9.73847 8.89621L2.08286 3.53728C2.11858 3.33012 2.16506 3.19607 2.21807 3.09202C2.40982 2.7157 2.71578 2.40973 3.0921 2.21799C3.2485 2.1383 3.47271 2.07337 3.91112 2.03755C4.36121 2.00078 4.94351 2 5.80009 2H16.2001C17.0567 2 17.639 2.00078 18.089 2.03755C18.5275 2.07337 18.7517 2.1383 18.9081 2.21799C19.2844 2.40973 19.5904 2.7157 19.7821 3.09202C19.8351 3.19607 19.8816 3.33012 19.9173 3.53728Z"/>
</svg>
