<svg width="19" height="19" viewBox="0 0 19 19">
<path d="M17.095 0H1.36298C0.609375 0 0 0.594952 0 1.33053V17.1274C0 17.863 0.609375 18.4615 1.36298 18.4615H17.095C17.8486 18.4615 18.4615 17.863 18.4615 17.131V1.33053C18.4615 0.594952 17.8486 0 17.095 0ZM5.47716 15.732H2.73678V6.91947H5.47716V15.732ZM4.10697 5.71875C3.22716 5.71875 2.51683 5.00841 2.51683 4.13221C2.51683 3.25601 3.22716 2.54567 4.10697 2.54567C4.98317 2.54567 5.69351 3.25601 5.69351 4.13221C5.69351 5.00481 4.98317 5.71875 4.10697 5.71875ZM15.732 15.732H12.9952V11.4483C12.9952 10.4279 12.9772 9.11178 11.5709 9.11178C10.1466 9.11178 9.93029 10.226 9.93029 11.3762V15.732H7.19712V6.91947H9.82212V8.1238H9.85817C10.2224 7.43149 11.1166 6.69952 12.4471 6.69952C15.22 6.69952 15.732 8.52404 15.732 10.8966V15.732Z"/>
</svg>
