<svg width="18" height="22" viewBox="0 0 18 22">
<path fill-rule="evenodd" clip-rule="evenodd" d="M9 2C5.13401 2 2 5.13401 2 9C2 11.7398 3.43931 13.2321 5.26764 14.7657C5.45903 14.9262 5.65793 15.0889 5.86116 15.255C6.94372 16.1402 8.14947 17.1262 9 18.4318C9.85053 17.1262 11.0563 16.1402 12.1388 15.255C12.3421 15.0889 12.541 14.9262 12.7324 14.7657C14.5607 13.2321 16 11.7398 16 9C16 5.13401 12.866 2 9 2ZM0 9C0 4.02944 4.02944 0 9 0C13.9706 0 18 4.02944 18 9C18 12.6785 15.9393 14.6862 14.0176 16.298C13.8145 16.4684 13.6153 16.6333 13.4208 16.7943C11.7005 18.2182 10.3531 19.3335 9.98058 21.1961C9.8871 21.6635 9.47668 22 9 22C8.52332 22 8.1129 21.6635 8.01942 21.1961C7.6469 19.3335 6.29947 18.2182 4.57915 16.7943C4.38469 16.6333 4.18547 16.4684 3.98236 16.298C2.06069 14.6862 0 12.6785 0 9ZM9 7C7.89543 7 7 7.89543 7 9C7 10.1046 7.89543 11 9 11C10.1046 11 11 10.1046 11 9C11 7.89543 10.1046 7 9 7ZM5 9C5 6.79086 6.79086 5 9 5C11.2091 5 13 6.79086 13 9C13 11.2091 11.2091 13 9 13C6.79086 13 5 11.2091 5 9Z"/>
</svg>
