<svg width="19" height="19" viewBox="0 0 19 19">
<path d="M16.2637 0H2.1978C0.985934 0 0 0.985934 0 2.1978V16.2637C0 17.4756 0.985934 18.4615 2.1978 18.4615H16.2637C17.4756 18.4615 18.4615 17.4756 18.4615 16.2637V2.1978C18.4615 0.985934 17.4756 0 16.2637 0ZM14.5081 8.05407C14.4084 8.0633 14.3073 8.06945 14.2048 8.06945C13.0519 8.06945 12.0387 7.47648 11.4492 6.58022C11.4492 8.93143 11.4492 11.6066 11.4492 11.6514C11.4492 13.7213 9.77099 15.3996 7.7011 15.3996C5.63121 15.3996 3.95297 13.7213 3.95297 11.6514C3.95297 9.58154 5.63121 7.9033 7.7011 7.9033C7.77934 7.9033 7.85582 7.91033 7.93275 7.91516V9.7622C7.85582 9.75297 7.78022 9.7389 7.7011 9.7389C6.6444 9.7389 5.78813 10.5952 5.78813 11.6519C5.78813 12.7086 6.6444 13.5648 7.7011 13.5648C8.7578 13.5648 9.69099 12.7323 9.69099 11.6756C9.69099 11.6338 9.70945 3.06286 9.70945 3.06286H11.4747C11.6409 4.64132 12.9152 5.88703 14.5081 6.00132V8.05407Z"/>
</svg>
