<svg xmlns="http://www.w3.org/2000/svg" xmlns:xlink="http://www.w3.org/1999/xlink"><symbol viewBox="0 0 8 14" id="icon-arrow_left"><path fill-rule="evenodd" clip-rule="evenodd" d="M7.70711 0.292893C8.09763 0.683417 8.09763 1.31658 7.70711 1.70711L2.41421 7L7.70711 12.2929C8.09763 12.6834 8.09763 13.3166 7.70711 13.7071C7.31658 14.0976 6.68342 14.0976 6.29289 13.7071L0.292893 7.70711C-0.0976311 7.31658 -0.0976311 6.68342 0.292893 6.29289L6.29289 0.292893C6.68342 -0.0976311 7.31658 -0.0976311 7.70711 0.292893Z"/></symbol><symbol viewBox="0 0 8 14" id="icon-arrow_right"><path fill-rule="evenodd" clip-rule="evenodd" d="M0.292893 0.292893C0.683417 -0.0976311 1.31658 -0.0976311 1.70711 0.292893L7.70711 6.29289C8.09763 6.68342 8.09763 7.31658 7.70711 7.70711L1.70711 13.7071C1.31658 14.0976 0.683417 14.0976 0.292893 13.7071C-0.0976311 13.3166 -0.0976311 12.6834 0.292893 12.2929L5.58579 7L0.292893 1.70711C-0.0976311 1.31658 -0.0976311 0.683417 0.292893 0.292893Z"/></symbol><symbol viewBox="0 0 1728 376" id="icon-big_circular_lines"><g opacity="0.2"><path d="M1359.31 -675.492C1137.68 -954.12 732.137 -1000.33 453.508 -778.695C174.88 -557.063 128.674 -151.522 350.305 127.106C571.937 405.735 977.478 451.941 1256.11 230.309C1534.74 8.67809 1580.94 -396.863 1359.31 -675.492Z" stroke="currentColor" stroke-width="2.5" stroke-miterlimit="10"/><path d="M1339.81 -659.983C1126.75 -927.845 736.878 -972.265 469.017 -759.198C201.155 -546.132 156.735 -156.263 369.802 111.599C582.868 379.46 972.737 423.88 1240.6 210.813C1508.46 -2.25308 1552.88 -392.122 1339.81 -659.983Z" stroke="currentColor" stroke-width="2.5" stroke-miterlimit="10"/><path d="M1320.31 -644.471C1115.81 -901.562 741.62 -944.196 484.529 -739.697C227.438 -535.198 184.804 -161.005 389.303 96.086C593.803 353.177 967.995 395.811 1225.09 191.311C1482.18 -13.1879 1524.81 -387.381 1320.31 -644.471Z" stroke="currentColor" stroke-width="2.5" stroke-miterlimit="10"/><path d="M1300.82 -628.963C1104.88 -875.287 746.36 -916.135 500.037 -720.2C253.714 -524.266 212.865 -165.745 408.8 80.578C604.734 326.901 963.255 367.75 1209.58 171.815C1455.9 -24.1192 1496.75 -382.64 1300.82 -628.963Z" stroke="currentColor" stroke-width="2.5" stroke-miterlimit="10"/><path d="M1281.32 -613.455C1093.95 -849.011 751.101 -888.073 515.545 -700.704C279.989 -513.334 240.926 -170.485 428.296 65.0704C615.666 300.626 958.514 339.689 1194.07 152.319C1429.63 -35.0502 1468.69 -377.899 1281.32 -613.455Z" stroke="currentColor" stroke-width="2.5" stroke-miterlimit="10"/><path d="M1261.82 -597.948C1083.02 -822.736 755.841 -860.013 531.053 -681.208C306.265 -502.404 268.987 -175.227 447.792 49.5617C626.597 274.35 953.774 311.627 1178.56 132.822C1403.35 -45.9823 1440.63 -373.159 1261.82 -597.948Z" stroke="currentColor" stroke-width="2.5" stroke-miterlimit="10"/><path d="M1242.32 -582.435C1072.08 -796.453 760.583 -831.944 546.565 -661.706C332.547 -491.469 297.056 -179.968 467.294 34.0496C637.531 248.067 949.032 283.558 1163.05 113.321C1377.07 -56.9165 1412.56 -368.417 1242.32 -582.435Z" stroke="currentColor" stroke-width="2.5" stroke-miterlimit="10"/><path d="M1222.83 -566.927C1061.15 -770.178 765.324 -803.883 562.073 -642.211C358.823 -480.538 325.117 -184.709 486.79 18.5411C648.463 221.792 944.291 255.497 1147.54 93.8243C1350.79 -67.8484 1384.5 -363.677 1222.83 -566.927Z" stroke="currentColor" stroke-width="2.5" stroke-miterlimit="10"/><path d="M1203.33 -551.419C1050.22 -743.902 770.064 -775.822 577.581 -622.714C385.098 -469.606 353.179 -189.449 506.286 3.03359C659.394 195.517 939.551 227.436 1132.03 74.3285C1324.52 -78.7793 1356.44 -358.936 1203.33 -551.419Z" stroke="currentColor" stroke-width="2.5" stroke-miterlimit="10"/><path d="M1183.83 -535.911C1039.29 -717.626 774.805 -747.761 593.089 -603.218C411.374 -458.675 381.24 -194.19 525.783 -12.4744C670.326 169.241 934.81 199.375 1116.53 54.8324C1298.24 -89.7107 1328.38 -354.195 1183.83 -535.911Z" stroke="currentColor" stroke-width="2.5" stroke-miterlimit="10"/><path d="M1164.33 -520.399C1028.36 -691.344 779.547 -719.692 608.602 -583.716C437.657 -447.74 409.309 -198.932 545.284 -27.9871C681.26 142.958 930.069 171.306 1101.01 35.3302C1271.96 -100.646 1300.31 -349.454 1164.33 -520.399Z" stroke="currentColor" stroke-width="2.5" stroke-miterlimit="10"/><path d="M1144.83 -504.891C1017.42 -665.068 784.287 -691.631 624.11 -564.22C463.932 -436.809 437.37 -203.672 564.781 -43.4948C692.192 116.683 925.328 143.245 1085.51 15.8343C1245.68 -111.577 1272.25 -344.713 1144.83 -504.891Z" stroke="currentColor" stroke-width="2.5" stroke-miterlimit="10"/><path d="M1125.34 -489.382C1006.49 -638.792 789.028 -663.569 639.618 -544.723C490.208 -425.877 465.431 -208.413 584.277 -59.0025C703.123 90.4075 920.588 115.184 1070 -3.66162C1219.41 -122.508 1244.18 -339.972 1125.34 -489.382Z" stroke="currentColor" stroke-width="2.5" stroke-miterlimit="10"/><path d="M1105.84 -473.875C995.561 -612.518 793.768 -635.509 655.126 -525.228C516.483 -414.946 493.492 -213.154 603.773 -74.5112C714.054 64.1314 915.847 87.1228 1054.49 -23.1585C1193.13 -133.44 1216.12 -335.232 1105.84 -473.875Z" stroke="currentColor" stroke-width="2.5" stroke-miterlimit="10"/><path d="M1086.34 -458.362C984.626 -586.234 798.51 -607.44 670.638 -505.726C542.766 -404.011 521.561 -217.895 623.275 -90.0231C724.989 37.8489 911.105 59.0542 1038.98 -42.6598C1166.85 -144.374 1188.05 -330.49 1086.34 -458.362Z" stroke="currentColor" stroke-width="2.5" stroke-miterlimit="10"/><path d="M1066.84 -442.854C973.695 -559.958 803.251 -579.378 686.146 -486.229C569.042 -393.08 549.622 -222.635 642.771 -105.531C735.92 11.5738 906.365 30.9935 1023.47 -62.1557C1140.57 -155.305 1159.99 -325.749 1066.84 -442.854Z" stroke="currentColor" stroke-width="2.5" stroke-miterlimit="10"/><path d="M1047.35 -427.346C962.764 -533.684 807.991 -551.318 701.654 -466.733C595.317 -382.149 577.683 -227.377 662.267 -121.039C746.852 -14.7023 901.624 2.9318 1007.96 -81.6526C1114.3 -166.237 1131.93 -321.009 1047.35 -427.346Z" stroke="currentColor" stroke-width="2.5" stroke-miterlimit="10"/><path d="M1027.85 -411.838C951.832 -507.408 812.732 -523.256 717.162 -447.237C621.593 -371.217 605.744 -232.117 681.764 -136.547C757.783 -40.9775 896.884 -25.129 992.453 -101.149C1088.02 -177.168 1103.87 -316.269 1027.85 -411.838Z" stroke="currentColor" stroke-width="2.5" stroke-miterlimit="10"/><path d="M1008.35 -396.326C940.898 -481.125 817.474 -495.188 732.675 -427.735C647.875 -360.283 633.813 -236.859 701.265 -152.06C768.718 -67.2608 892.142 -53.1984 976.941 -120.651C1061.74 -188.103 1075.8 -311.527 1008.35 -396.326Z" stroke="currentColor" stroke-width="2.5" stroke-miterlimit="10"/></g><defs><linearGradient id="acpaint0_linear_31164_2038" x1="350.305" y1="127.106" x2="1359.31" y2="-675.492" gradientUnits="userSpaceOnUse"><stop offset="0.807692" stop-color="currentColor"/><stop offset="1" stop-color="currentColor"/></linearGradient><linearGradient id="acpaint1_linear_31164_2038" x1="369.802" y1="111.599" x2="1339.81" y2="-659.983" gradientUnits="userSpaceOnUse"><stop offset="0.807692" stop-color="currentColor"/><stop offset="1" stop-color="currentColor"/></linearGradient><linearGradient id="acpaint2_linear_31164_2038" x1="389.303" y1="96.0859" x2="1320.31" y2="-644.471" gradientUnits="userSpaceOnUse"><stop offset="0.807692" stop-color="currentColor"/><stop offset="1" stop-color="currentColor"/></linearGradient><linearGradient id="acpaint3_linear_31164_2038" x1="408.8" y1="80.578" x2="1300.82" y2="-628.963" gradientUnits="userSpaceOnUse"><stop offset="0.807692" stop-color="currentColor"/><stop offset="1" stop-color="currentColor"/></linearGradient><linearGradient id="acpaint4_linear_31164_2038" x1="428.296" y1="65.0704" x2="1281.32" y2="-613.455" gradientUnits="userSpaceOnUse"><stop offset="0.807692" stop-color="currentColor"/><stop offset="1" stop-color="currentColor"/></linearGradient><linearGradient id="acpaint5_linear_31164_2038" x1="447.792" y1="49.5617" x2="1261.82" y2="-597.948" gradientUnits="userSpaceOnUse"><stop offset="0.807692" stop-color="currentColor"/><stop offset="1" stop-color="currentColor"/></linearGradient><linearGradient id="acpaint6_linear_31164_2038" x1="467.294" y1="34.0495" x2="1242.32" y2="-582.435" gradientUnits="userSpaceOnUse"><stop offset="0.807692" stop-color="currentColor"/><stop offset="1" stop-color="currentColor"/></linearGradient><linearGradient id="acpaint7_linear_31164_2038" x1="486.79" y1="18.5411" x2="1222.83" y2="-566.927" gradientUnits="userSpaceOnUse"><stop offset="0.807692" stop-color="currentColor"/><stop offset="1" stop-color="currentColor"/></linearGradient><linearGradient id="acpaint8_linear_31164_2038" x1="506.286" y1="3.03359" x2="1203.33" y2="-551.419" gradientUnits="userSpaceOnUse"><stop offset="0.807692" stop-color="currentColor"/><stop offset="1" stop-color="currentColor"/></linearGradient><linearGradient id="acpaint9_linear_31164_2038" x1="525.783" y1="-12.4743" x2="1183.83" y2="-535.911" gradientUnits="userSpaceOnUse"><stop offset="0.807692" stop-color="currentColor"/><stop offset="1" stop-color="currentColor"/></linearGradient><linearGradient id="acpaint10_linear_31164_2038" x1="545.284" y1="-27.9871" x2="1164.33" y2="-520.399" gradientUnits="userSpaceOnUse"><stop offset="0.807692" stop-color="currentColor"/><stop offset="1" stop-color="currentColor"/></linearGradient><linearGradient id="acpaint11_linear_31164_2038" x1="564.781" y1="-43.4948" x2="1144.83" y2="-504.891" gradientUnits="userSpaceOnUse"><stop offset="0.807692" stop-color="currentColor"/><stop offset="1" stop-color="currentColor"/></linearGradient><linearGradient id="acpaint12_linear_31164_2038" x1="584.277" y1="-59.0025" x2="1125.34" y2="-489.382" gradientUnits="userSpaceOnUse"><stop offset="0.807692" stop-color="currentColor"/><stop offset="1" stop-color="currentColor"/></linearGradient><linearGradient id="acpaint13_linear_31164_2038" x1="603.773" y1="-74.5112" x2="1105.84" y2="-473.875" gradientUnits="userSpaceOnUse"><stop offset="0.807692" stop-color="currentColor"/><stop offset="1" stop-color="currentColor"/></linearGradient><linearGradient id="acpaint14_linear_31164_2038" x1="623.275" y1="-90.0232" x2="1086.34" y2="-458.362" gradientUnits="userSpaceOnUse"><stop offset="0.807692" stop-color="currentColor"/><stop offset="1" stop-color="currentColor"/></linearGradient><linearGradient id="acpaint15_linear_31164_2038" x1="642.771" y1="-105.531" x2="1066.84" y2="-442.854" gradientUnits="userSpaceOnUse"><stop offset="0.807692" stop-color="currentColor"/><stop offset="1" stop-color="currentColor"/></linearGradient><linearGradient id="acpaint16_linear_31164_2038" x1="662.267" y1="-121.039" x2="1047.35" y2="-427.346" gradientUnits="userSpaceOnUse"><stop offset="0.807692" stop-color="currentColor"/><stop offset="1" stop-color="currentColor"/></linearGradient><linearGradient id="acpaint17_linear_31164_2038" x1="681.764" y1="-136.547" x2="1027.85" y2="-411.838" gradientUnits="userSpaceOnUse"><stop offset="0.807692" stop-color="currentColor"/><stop offset="1" stop-color="currentColor"/></linearGradient><linearGradient id="acpaint18_linear_31164_2038" x1="701.265" y1="-152.06" x2="1008.35" y2="-396.326" gradientUnits="userSpaceOnUse"><stop offset="0.807692" stop-color="currentColor"/><stop offset="1" stop-color="currentColor"/></linearGradient></defs></symbol><symbol viewBox="0 0 24 24" id="icon-calendar"><path fill-rule="evenodd" clip-rule="evenodd" d="M8 1C8.55229 1 9 1.44772 9 2V3H15V2C15 1.44772 15.4477 1 16 1C16.5523 1 17 1.44772 17 2V3.00163C17.4755 3.00489 17.891 3.01471 18.2518 3.04419C18.8139 3.09012 19.3306 3.18868 19.816 3.43597C20.5686 3.81947 21.1805 4.43139 21.564 5.18404C21.8113 5.66937 21.9099 6.18608 21.9558 6.74817C22 7.28936 22 7.95372 22 8.75868V17.2413C22 18.0463 22 18.7106 21.9558 19.2518C21.9099 19.8139 21.8113 20.3306 21.564 20.816C21.1805 21.5686 20.5686 22.1805 19.816 22.564C19.3306 22.8113 18.8139 22.9099 18.2518 22.9558C17.7106 23 17.0463 23 16.2413 23H7.75868C6.95372 23 6.28936 23 5.74817 22.9558C5.18608 22.9099 4.66937 22.8113 4.18404 22.564C3.43139 22.1805 2.81947 21.5686 2.43597 20.816C2.18868 20.3306 2.09012 19.8139 2.04419 19.2518C1.99998 18.7106 1.99999 18.0463 2 17.2413V8.7587C1.99999 7.95373 1.99998 7.28937 2.04419 6.74817C2.09012 6.18608 2.18868 5.66937 2.43597 5.18404C2.81947 4.43139 3.43139 3.81947 4.18404 3.43597C4.66937 3.18868 5.18608 3.09012 5.74818 3.04419C6.10898 3.01471 6.52454 3.00489 7 3.00163V2C7 1.44772 7.44772 1 8 1ZM7 5.00176C6.55447 5.00489 6.20463 5.01356 5.91104 5.03755C5.47262 5.07337 5.24842 5.1383 5.09202 5.21799C4.7157 5.40973 4.40973 5.71569 4.21799 6.09202C4.1383 6.24842 4.07337 6.47262 4.03755 6.91104C4.00078 7.36113 4 7.94342 4 8.8V9H20V8.8C20 7.94342 19.9992 7.36113 19.9624 6.91104C19.9266 6.47262 19.8617 6.24842 19.782 6.09202C19.5903 5.7157 19.2843 5.40973 18.908 5.21799C18.7516 5.1383 18.5274 5.07337 18.089 5.03755C17.7954 5.01356 17.4455 5.00489 17 5.00176V6C17 6.55228 16.5523 7 16 7C15.4477 7 15 6.55228 15 6V5H9V6C9 6.55228 8.55229 7 8 7C7.44772 7 7 6.55228 7 6V5.00176ZM20 11H4V17.2C4 18.0566 4.00078 18.6389 4.03755 19.089C4.07337 19.5274 4.1383 19.7516 4.21799 19.908C4.40973 20.2843 4.7157 20.5903 5.09202 20.782C5.24842 20.8617 5.47262 20.9266 5.91104 20.9624C6.36113 20.9992 6.94342 21 7.8 21H16.2C17.0566 21 17.6389 20.9992 18.089 20.9624C18.5274 20.9266 18.7516 20.8617 18.908 20.782C19.2843 20.5903 19.5903 20.2843 19.782 19.908C19.8617 19.7516 19.9266 19.5274 19.9624 19.089C19.9992 18.6389 20 18.0566 20 17.2V11Z"/></symbol><symbol viewBox="0 0 21 21" id="icon-call"><path fill-rule="evenodd" clip-rule="evenodd" d="M4.97533 2.10765C4.69155 1.96412 4.35642 1.96412 4.07263 2.10765C3.96591 2.16163 3.83287 2.27689 3.24585 2.86392L3.08822 3.02155C2.528 3.58177 2.37699 3.74379 2.25628 3.95868C2.11637 4.20774 1.99915 4.65848 2 4.94416C2.00076 5.19836 2.03829 5.35145 2.20355 5.9337C3.01916 8.80727 4.55775 11.5191 6.82208 13.7834C9.0864 16.0477 11.7982 17.5863 14.6718 18.4019C15.254 18.5672 15.4071 18.6047 15.6613 18.6055C15.947 18.6063 16.3977 18.4891 16.6468 18.3492C16.8617 18.2285 17.0237 18.0775 17.5839 17.5172L17.7415 17.3596C18.3286 16.7726 18.4438 16.6395 18.4978 16.5328C18.6413 16.249 18.6413 15.9139 18.4978 15.6301C18.4438 15.5234 18.3286 15.3904 17.7415 14.8033L18.4486 14.0962L17.7415 14.8033L17.5467 14.6085C17.161 14.2228 17.0742 14.1438 17.0085 14.101C16.6771 13.8856 16.2498 13.8856 15.9183 14.101C15.8526 14.1438 15.7659 14.2228 15.3801 14.6085C15.3725 14.6161 15.3647 14.6239 15.3567 14.632C15.267 14.722 15.1534 14.836 15.017 14.9337L14.4348 14.1207L15.0169 14.9337C14.53 15.2824 13.8679 15.3953 13.2929 15.2277C13.1325 15.181 13.0005 15.1173 12.8978 15.0678C12.8897 15.0639 12.8817 15.0601 12.874 15.0563C11.324 14.3122 9.87232 13.2981 8.58985 12.0156C7.30737 10.7331 6.29328 9.28145 5.54911 7.73149C5.54539 7.72373 5.54156 7.71579 5.53764 7.70767C5.48814 7.60498 5.4245 7.47297 5.37775 7.3126L6.33779 7.03274L5.37775 7.31259C5.21012 6.73756 5.32302 6.0755 5.67173 5.58851L5.67173 5.58851C5.76943 5.45207 5.88345 5.33846 5.97351 5.24872C5.98154 5.24073 5.98937 5.23292 5.99698 5.22531C6.38269 4.8396 6.46167 4.75287 6.50441 4.68714L6.50441 4.68714C6.7199 4.35569 6.7199 3.9284 6.50441 3.59696C6.46167 3.53122 6.38269 3.4445 5.99698 3.05879L5.80211 2.86392C5.21509 2.27689 5.08205 2.16163 4.97533 2.10765ZM3.16994 0.322954C4.02128 -0.107651 5.02668 -0.107652 5.87802 0.322954C6.31062 0.541759 6.68617 0.918273 7.12061 1.35383C7.15219 1.38549 7.18408 1.41746 7.21633 1.4497L7.4112 1.64457C7.43244 1.66582 7.45349 1.68683 7.47433 1.70764C7.76099 1.99381 8.00792 2.24033 8.18116 2.50677L7.34279 3.05187L8.18116 2.50678C8.82765 3.50111 8.82765 4.78298 8.18116 5.77732C8.00792 6.04377 7.76099 6.29028 7.47434 6.57645C7.4535 6.59726 7.43244 6.61827 7.4112 6.63952C7.35359 6.69713 7.3242 6.72667 7.30373 6.74833C7.30336 6.74996 7.30299 6.75176 7.30266 6.75371C7.30229 6.75588 7.30202 6.75788 7.30183 6.75969C7.30512 6.76701 7.30958 6.77668 7.31573 6.78974C7.32534 6.81017 7.33664 6.8337 7.35207 6.86584C7.99989 8.21512 8.88338 9.48072 10.0041 10.6014C11.1247 11.7221 12.3903 12.6056 13.7396 13.2534L13.3068 14.1549L13.7396 13.2534C13.7718 13.2688 13.7953 13.2801 13.8157 13.2897C13.8288 13.2959 13.8385 13.3003 13.8458 13.3036C13.8476 13.3034 13.8496 13.3032 13.8517 13.3028C13.8537 13.3025 13.8555 13.3021 13.8571 13.3017C13.8788 13.2813 13.9083 13.2519 13.9659 13.1943C13.9872 13.173 14.0082 13.152 14.029 13.1311C14.3152 12.8445 14.5617 12.5975 14.8281 12.4243C15.8225 11.7778 17.1043 11.7778 18.0987 12.4243C18.3651 12.5975 18.6116 12.8445 18.8978 13.1311C18.9186 13.152 18.9396 13.173 18.9609 13.1943L18.2538 13.9014L18.9609 13.1943L19.1558 13.3891C19.188 13.4214 19.22 13.4533 19.2516 13.4848C19.6872 13.9193 20.0637 14.2948 20.2825 14.7274C20.7131 15.5788 20.7131 16.5842 20.2825 17.4355C20.0637 17.8681 19.6872 18.2437 19.2516 18.6781C19.22 18.7097 19.188 18.7416 19.1558 18.7738L18.9981 18.9315C18.9753 18.9543 18.9527 18.9769 18.9304 18.9992C18.4652 19.4649 18.1084 19.8221 17.6263 20.0929C17.0764 20.4018 16.2861 20.6073 15.6554 20.6054C15.1035 20.6038 14.701 20.4894 14.182 20.3419C14.1634 20.3366 14.1446 20.3313 14.1257 20.3259C10.9324 19.4196 7.9195 17.7092 5.40787 15.1976C2.89623 12.686 1.18588 9.67302 0.279547 6.47979C0.274173 6.46086 0.268839 6.44209 0.263547 6.42347C0.116041 5.90447 0.00165415 5.50199 1.27536e-05 4.95011C-0.00186444 4.31934 0.203641 3.5291 0.512571 2.97915L0.512572 2.97915C0.783371 2.49708 1.14053 2.14029 1.60626 1.67504C1.62859 1.65273 1.65117 1.63017 1.674 1.60734L1.83164 1.4497C1.86388 1.41746 1.89577 1.38549 1.92735 1.35383C2.36179 0.918273 2.73735 0.541759 3.16994 0.322954L3.61617 1.20519L3.16994 0.322954Z"/></symbol><symbol viewBox="0 0 14 14" id="icon-delete"><path fill-rule="evenodd" clip-rule="evenodd" d="M0.292893 0.292893C0.683417 -0.0976311 1.31658 -0.0976311 1.70711 0.292893L7 5.58579L12.2929 0.292893C12.6834 -0.0976311 13.3166 -0.0976311 13.7071 0.292893C14.0976 0.683417 14.0976 1.31658 13.7071 1.70711L8.41421 7L13.7071 12.2929C14.0976 12.6834 14.0976 13.3166 13.7071 13.7071C13.3166 14.0976 12.6834 14.0976 12.2929 13.7071L7 8.41421L1.70711 13.7071C1.31658 14.0976 0.683417 14.0976 0.292893 13.7071C-0.0976311 13.3166 -0.0976311 12.6834 0.292893 12.2929L5.58579 7L0.292893 1.70711C-0.0976311 1.31658 -0.0976311 0.683417 0.292893 0.292893Z"/></symbol><symbol viewBox="0 0 22 16" id="icon-discord"><path d="M18.9511 1.77432C17.0474 0.267012 14.0358 0.0115054 13.9069 0.00231418C13.707 -0.0142293 13.5165 0.0960617 13.4343 0.278042C13.4268 0.289071 13.3614 0.437963 13.2886 0.669574C14.5477 0.879127 16.0946 1.30007 17.4939 2.15482C17.7181 2.29085 17.7872 2.58128 17.6489 2.80186C17.5574 2.94708 17.4023 3.02612 17.2417 3.02612C17.1557 3.02612 17.0679 3.00222 16.9895 2.95443C14.5832 1.48573 11.5791 1.4122 11 1.4122C10.4209 1.4122 7.41491 1.48573 5.01053 2.95443C4.78635 3.0923 4.49117 3.02428 4.35292 2.8037C4.21281 2.58128 4.28193 2.29269 4.50611 2.15482C5.9054 1.30191 7.45228 0.879127 8.71145 0.671412C8.63859 0.437964 8.5732 0.290909 8.5676 0.278042C8.48353 0.0960617 8.29484 -0.0179055 8.09307 0.00231418C7.96416 0.0115054 4.95262 0.267012 3.02276 1.79454C2.0158 2.71179 0 8.07193 0 12.706C0 12.7887 0.0224185 12.8677 0.0635192 12.9394C1.45346 15.3438 5.24779 15.9724 6.11277 16C6.11651 16 6.12211 16 6.12772 16C6.28091 16 6.42476 15.9283 6.51444 15.807L7.38876 14.6232C5.02921 14.024 3.82422 13.0056 3.7551 12.9449C3.55707 12.774 3.53838 12.4762 3.71399 12.2814C3.88774 12.0865 4.19039 12.0681 4.38842 12.2391C4.41644 12.2648 6.63587 14.1177 11 14.1177C15.3716 14.1177 17.591 12.2575 17.6135 12.2391C17.8115 12.07 18.1123 12.0865 18.2879 12.2832C18.4616 12.478 18.4429 12.774 18.2449 12.9449C18.1758 13.0056 16.9708 14.024 14.6112 14.6232L15.4856 15.807C15.5752 15.9283 15.7191 16 15.8723 16C15.8779 16 15.8835 16 15.8872 16C16.7522 15.9724 20.5465 15.3438 21.9365 12.9394C21.9776 12.8677 22 12.7887 22 12.706C22 8.07193 19.9842 2.71179 18.9511 1.77432ZM7.8913 10.8237C6.96654 10.8237 6.21739 9.9818 6.21739 8.94139C6.21739 7.90098 6.96654 7.05909 7.8913 7.05909C8.81607 7.05909 9.56522 7.90098 9.56522 8.94139C9.56522 9.9818 8.81607 10.8237 7.8913 10.8237ZM14.1087 10.8237C13.1839 10.8237 12.4348 9.9818 12.4348 8.94139C12.4348 7.90098 13.1839 7.05909 14.1087 7.05909C15.0335 7.05909 15.7826 7.90098 15.7826 8.94139C15.7826 9.9818 15.0335 10.8237 14.1087 10.8237Z"/></symbol><symbol viewBox="0 0 24 24" id="icon-done"><path fill-rule="evenodd" clip-rule="evenodd" d="M20.7071 5.29289C21.0976 5.68342 21.0976 6.31658 20.7071 6.70711L9.70711 17.7071C9.31658 18.0976 8.68342 18.0976 8.29289 17.7071L3.29289 12.7071C2.90237 12.3166 2.90237 11.6834 3.29289 11.2929C3.68342 10.9024 4.31658 10.9024 4.70711 11.2929L9 15.5858L19.2929 5.29289C19.6834 4.90237 20.3166 4.90237 20.7071 5.29289Z"/></symbol><symbol viewBox="0 0 24 24" id="icon-down"><path fill-rule="evenodd" clip-rule="evenodd" d="M18.7071 8.29289C19.0976 8.68342 19.0976 9.31658 18.7071 9.70711L12.7071 15.7071C12.3166 16.0976 11.6834 16.0976 11.2929 15.7071L5.29289 9.70711C4.90237 9.31658 4.90237 8.68342 5.29289 8.29289C5.68342 7.90237 6.31658 7.90237 6.70711 8.29289L12 13.5858L17.2929 8.29289C17.6834 7.90237 18.3166 7.90237 18.7071 8.29289Z"/></symbol><symbol viewBox="0 0 20 20" id="icon-facebook"><path d="M0 10.0602C0.00116354 15.0099 3.5784 19.2243 8.437 20V12.968H5.9V10.0602H8.44V7.84664C8.32645 6.79776 8.68252 5.75241 9.41164 4.99411C10.1408 4.23581 11.1674 3.84315 12.213 3.92263C12.9635 3.93482 13.7122 4.00208 14.453 4.12386V6.598H13.189C12.7538 6.54065 12.3164 6.68525 11.9998 6.99107C11.6832 7.29688 11.5218 7.73081 11.561 8.17062V10.0602H14.332L13.889 12.969H11.561V20C16.8155 19.1645 20.5001 14.3361 19.9455 9.01285C19.3909 3.68957 14.7913 -0.265066 9.47882 0.0138897C4.16636 0.292846 0.000844477 4.70774 0 10.0602Z"/></symbol><symbol viewBox="0 0 22 20" id="icon-folder"><path fill-rule="evenodd" clip-rule="evenodd" d="M9.09001 2.05487C8.96938 2.01326 8.8127 2.00022 8.02229 2.00022H4.2C3.62345 2.00022 3.25117 2.00099 2.96784 2.02414C2.69617 2.04634 2.59546 2.08402 2.54601 2.10921C2.35785 2.20508 2.20487 2.35806 2.109 2.54622C2.0838 2.59567 2.04612 2.69639 2.02393 2.96805C2.00357 3.2172 2.00052 3.53511 2.00007 4.00022H10.382L9.99003 3.21635C9.63656 2.50939 9.55481 2.37508 9.46365 2.2858C9.35776 2.18208 9.23013 2.1032 9.09001 2.05487ZM12.618 4.00022L11.7789 2.32192C11.7602 2.28453 11.7417 2.24744 11.7234 2.21065C11.4586 1.6794 11.2258 1.21221 10.8631 0.85696C10.5454 0.545811 10.1625 0.309177 9.74215 0.164179C9.26219 -0.00136684 8.74022 -0.000677455 8.14666 0.000106346C8.10555 0.000160586 8.0641 0.000215303 8.02229 0.000215303L4.16146 0.00021435C3.63431 0.000196468 3.17955 0.000180971 2.80497 0.0307847C2.40963 0.0630857 2.01641 0.134402 1.63803 0.327196C1.07354 0.614816 0.614602 1.07376 0.326982 1.63824C0.134188 2.01662 0.0628723 2.40984 0.0305712 2.80519C-3.25181e-05 3.17976 -1.70213e-05 3.63452 8.6011e-07 4.16167L1.33695e-06 14.2415C-1.14184e-05 15.0465 -2.19084e-05 15.7108 0.0441954 16.252C0.0901206 16.8141 0.188685 17.3308 0.435976 17.8162C0.819469 18.5688 1.43139 19.1807 2.18404 19.5642C2.66938 19.8115 3.18608 19.9101 3.74818 19.956C4.28937 20.0002 4.95372 20.0002 5.75868 20.0002H16.2413C17.0463 20.0002 17.7106 20.0002 18.2518 19.956C18.8139 19.9101 19.3306 19.8115 19.816 19.5642C20.5686 19.1807 21.1805 18.5688 21.564 17.8162C21.8113 17.3308 21.9099 16.8141 21.9558 16.252C22 15.7109 22 15.0465 22 14.2415V9.75889C22 8.95393 22 8.28958 21.9558 7.74839C21.9099 7.18629 21.8113 6.66959 21.564 6.18425C21.1805 5.4316 20.5686 4.81968 19.816 4.43619C19.3306 4.1889 18.8139 4.09033 18.2518 4.04441C17.7106 4.00019 17.0463 4.0002 16.2413 4.00022L12.618 4.00022ZM11.9799 6.00022C11.9938 6.00051 12.0077 6.00051 12.0217 6.00022H16.2C17.0566 6.00022 17.6389 6.00099 18.089 6.03777C18.5274 6.07359 18.7516 6.13851 18.908 6.2182C19.2843 6.40995 19.5903 6.71591 19.782 7.09223C19.8617 7.24863 19.9266 7.47284 19.9625 7.91125C19.9992 8.36134 20 8.94364 20 9.80022V14.2002C20 15.0568 19.9992 15.6391 19.9625 16.0892C19.9266 16.5276 19.8617 16.7518 19.782 16.9082C19.5903 17.2845 19.2843 17.5905 18.908 17.7822C18.7516 17.8619 18.5274 17.9268 18.089 17.9627C17.6389 17.9994 17.0566 18.0002 16.2 18.0002H5.8C4.94342 18.0002 4.36113 17.9994 3.91104 17.9627C3.47262 17.9268 3.24842 17.8619 3.09202 17.7822C2.7157 17.5905 2.40974 17.2845 2.21799 16.9082C2.1383 16.7518 2.07337 16.5276 2.03755 16.0892C2.00078 15.6391 2 15.0568 2 14.2002V6.00022H11.9799Z"/></symbol><symbol viewBox="0 0 19 19" id="icon-instagram"><path fill-rule="evenodd" clip-rule="evenodd" d="M5.42518 0.0553846C6.40951 0.0100699 6.72336 0 9.23077 0C11.7382 0 12.052 0.0109091 13.0355 0.0553846C14.019 0.0998601 14.6904 0.256783 15.2778 0.484196C15.8929 0.716644 16.4509 1.08 16.9125 1.54993C17.3824 2.01063 17.7449 2.56783 17.9765 3.18378C18.2048 3.77119 18.3608 4.44252 18.4062 5.42434C18.4515 6.41035 18.4615 6.7242 18.4615 9.23077C18.4615 11.7382 18.4506 12.052 18.4062 13.0364C18.3617 14.0182 18.2048 14.6895 17.9765 15.2769C17.7449 15.8929 17.3818 16.4511 16.9125 16.9125C16.4509 17.3824 15.8929 17.7449 15.2778 17.9765C14.6904 18.2048 14.019 18.3608 13.0372 18.4062C12.052 18.4515 11.7382 18.4615 9.23077 18.4615C6.72336 18.4615 6.40951 18.4506 5.42518 18.4062C4.44336 18.3617 3.77203 18.2048 3.18462 17.9765C2.56861 17.7449 2.01048 17.3818 1.54909 16.9125C1.07948 16.4515 0.716068 15.8936 0.484196 15.2778C0.256783 14.6904 0.100699 14.019 0.0553846 13.0372C0.0100699 12.0512 0 11.7373 0 9.23077C0 6.72336 0.0109091 6.40951 0.0553846 5.42601C0.0998601 4.44252 0.256783 3.77119 0.484196 3.18378C0.716411 2.5679 1.0801 2.01005 1.54993 1.54909C2.01066 1.07958 2.56823 0.716176 3.18378 0.484196C3.77119 0.256783 4.44252 0.100699 5.42434 0.0553846H5.42518ZM12.9608 1.71692C11.9874 1.67245 11.6954 1.66322 9.23077 1.66322C6.76616 1.66322 6.47413 1.67245 5.5007 1.71692C4.60028 1.75804 4.11189 1.90825 3.78629 2.03497C3.3558 2.2028 3.04783 2.40168 2.72476 2.72476C2.4185 3.0227 2.18281 3.38541 2.03497 3.78629C1.90825 4.11189 1.75804 4.60028 1.71692 5.5007C1.67245 6.47413 1.66322 6.76616 1.66322 9.23077C1.66322 11.6954 1.67245 11.9874 1.71692 12.9608C1.75804 13.8613 1.90825 14.3497 2.03497 14.6752C2.18266 15.0755 2.41846 15.4389 2.72476 15.7368C3.02266 16.0431 3.38601 16.2789 3.78629 16.4266C4.11189 16.5533 4.60028 16.7035 5.5007 16.7446C6.47413 16.7891 6.76532 16.7983 9.23077 16.7983C11.6962 16.7983 11.9874 16.7891 12.9608 16.7446C13.8613 16.7035 14.3497 16.5533 14.6752 16.4266C15.1057 16.2587 15.4137 16.0599 15.7368 15.7368C16.0431 15.4389 16.2789 15.0755 16.4266 14.6752C16.5533 14.3497 16.7035 13.8613 16.7446 12.9608C16.7891 11.9874 16.7983 11.6954 16.7983 9.23077C16.7983 6.76616 16.7891 6.47413 16.7446 5.5007C16.7035 4.60028 16.5533 4.11189 16.4266 3.78629C16.2587 3.3558 16.0599 3.04783 15.7368 2.72476C15.4388 2.41852 15.0761 2.18283 14.6752 2.03497C14.3497 1.90825 13.8613 1.75804 12.9608 1.71692ZM8.05175 12.0764C8.71021 12.3505 9.4434 12.3875 10.1261 12.181C10.8088 11.9746 11.3987 11.5376 11.7949 10.9445C12.1912 10.3515 12.3693 9.63933 12.2988 8.9296C12.2283 8.21987 11.9136 7.55662 11.4084 7.05315C11.0864 6.73131 10.697 6.48488 10.2683 6.33159C9.83954 6.17831 9.38218 6.12198 8.92909 6.16667C8.476 6.21136 8.03845 6.35595 7.64795 6.59004C7.25745 6.82413 6.9237 7.14188 6.67074 7.52044C6.41779 7.89899 6.25191 8.32892 6.18505 8.77927C6.11819 9.22962 6.15202 9.6892 6.28409 10.1249C6.41616 10.5606 6.6432 10.9616 6.94886 11.2991C7.25451 11.6365 7.63118 11.902 8.05175 12.0764ZM5.8758 5.8758C6.31639 5.43522 6.83943 5.08574 7.41508 4.8473C7.99072 4.60886 8.6077 4.48613 9.23077 4.48613C9.85385 4.48613 10.4708 4.60886 11.0465 4.8473C11.6221 5.08574 12.1452 5.43522 12.5857 5.8758C13.0263 6.31639 13.3758 6.83943 13.6142 7.41508C13.8527 7.99072 13.9754 8.6077 13.9754 9.23077C13.9754 9.85385 13.8527 10.4708 13.6142 11.0465C13.3758 11.6221 13.0263 12.1452 12.5857 12.5857C11.6959 13.4755 10.4891 13.9754 9.23077 13.9754C7.97241 13.9754 6.7656 13.4755 5.8758 12.5857C4.98601 11.6959 4.48613 10.4891 4.48613 9.23077C4.48613 7.97241 4.98601 6.7656 5.8758 5.8758ZM15.0277 5.19273C15.1369 5.08974 15.2243 4.96589 15.2847 4.82851C15.3452 4.69113 15.3775 4.54302 15.3797 4.39295C15.3818 4.24287 15.3539 4.09389 15.2975 3.95481C15.241 3.81573 15.1573 3.68938 15.0512 3.58325C14.945 3.47712 14.8187 3.39336 14.6796 3.33694C14.5405 3.28051 14.3915 3.25257 14.2415 3.25476C14.0914 3.25694 13.9433 3.28922 13.8059 3.34968C13.6685 3.41013 13.5447 3.49754 13.4417 3.60671C13.2414 3.81905 13.1317 4.10108 13.136 4.39295C13.1402 4.68482 13.2581 4.96354 13.4645 5.16994C13.6709 5.37634 13.9496 5.49418 14.2415 5.49843C14.5333 5.50269 14.8154 5.39303 15.0277 5.19273Z"/></symbol><symbol viewBox="0 0 22 18" id="icon-letter"><path fill-rule="evenodd" clip-rule="evenodd" d="M5.75879 4.31292e-07H16.2414C17.0464 -1.23241e-05 17.7107 -2.28137e-05 18.2519 0.0441945C18.814 0.0901197 19.3307 0.188684 19.816 0.435975C20.5687 0.819468 21.1806 1.43139 21.5641 2.18404C21.8027 2.65238 21.9029 3.14994 21.9509 3.68931C22.0043 3.8527 22.0137 4.02505 21.9819 4.18959C22.0001 4.63971 22.0001 5.16035 22.0001 5.75868V12.2413C22.0001 13.0463 22.0001 13.7106 21.9559 14.2518C21.91 14.8139 21.8114 15.3306 21.5641 15.816C21.1806 16.5686 20.5687 17.1805 19.816 17.564C19.3307 17.8113 18.814 17.9099 18.2519 17.9558C17.7107 18 17.0464 18 16.2414 18H5.75876C4.9538 18 4.28945 18 3.74826 17.9558C3.18616 17.9099 2.66946 17.8113 2.18412 17.564C1.43148 17.1805 0.819553 16.5686 0.43606 15.816C0.188769 15.3306 0.0902046 14.8139 0.0442794 14.2518C6.2082e-05 13.7106 7.25738e-05 13.0463 8.53292e-05 12.2413V5.7587C7.57925e-05 5.16037 6.75675e-05 4.63972 0.0182226 4.1896C-0.0135336 4.02505 -0.00416067 3.85269 0.0493014 3.6893C0.0972895 3.14993 0.197428 2.65238 0.43606 2.18404C0.819553 1.43139 1.43148 0.819468 2.18412 0.435975C2.66946 0.188684 3.18616 0.0901197 3.74826 0.0441945C4.28946 -2.28137e-05 4.95382 -1.23241e-05 5.75879 4.31292e-07ZM2.00009 5.92066V12.2C2.00009 13.0566 2.00086 13.6389 2.03764 14.089C2.07346 14.5274 2.13838 14.7516 2.21807 14.908C2.40982 15.2843 2.71578 15.5903 3.0921 15.782C3.2485 15.8617 3.47271 15.9266 3.91112 15.9624C4.36121 15.9992 4.94351 16 5.80009 16H16.2001C17.0567 16 17.639 15.9992 18.089 15.9624C18.5275 15.9266 18.7517 15.8617 18.9081 15.782C19.2844 15.5903 19.5904 15.2843 19.7821 14.908C19.8618 14.7516 19.9267 14.5274 19.9625 14.089C19.9993 13.6389 20.0001 13.0566 20.0001 12.2V5.92066L13.4086 10.5347C13.3698 10.5618 13.3314 10.5888 13.2933 10.6156C12.7486 10.998 12.2704 11.3338 11.7257 11.4696C11.2492 11.5884 10.7509 11.5884 10.2745 11.4696C9.72979 11.3338 9.25154 10.998 8.70689 10.6156C8.66878 10.5888 8.63035 10.5618 8.59154 10.5347L2.00009 5.92066ZM19.9173 3.53728L12.2617 8.89621C11.5328 9.40647 11.3783 9.49501 11.242 9.529C11.0831 9.56859 10.917 9.56859 10.7582 9.529C10.6218 9.49501 10.4674 9.40647 9.73847 8.89621L2.08286 3.53728C2.11858 3.33012 2.16506 3.19607 2.21807 3.09202C2.40982 2.7157 2.71578 2.40973 3.0921 2.21799C3.2485 2.1383 3.47271 2.07337 3.91112 2.03755C4.36121 2.00078 4.94351 2 5.80009 2H16.2001C17.0567 2 17.639 2.00078 18.089 2.03755C18.5275 2.07337 18.7517 2.1383 18.9081 2.21799C19.2844 2.40973 19.5904 2.7157 19.7821 3.09202C19.8351 3.19607 19.8816 3.33012 19.9173 3.53728Z"/></symbol><symbol viewBox="0 0 19 19" id="icon-linkedin"><path d="M17.095 0H1.36298C0.609375 0 0 0.594952 0 1.33053V17.1274C0 17.863 0.609375 18.4615 1.36298 18.4615H17.095C17.8486 18.4615 18.4615 17.863 18.4615 17.131V1.33053C18.4615 0.594952 17.8486 0 17.095 0ZM5.47716 15.732H2.73678V6.91947H5.47716V15.732ZM4.10697 5.71875C3.22716 5.71875 2.51683 5.00841 2.51683 4.13221C2.51683 3.25601 3.22716 2.54567 4.10697 2.54567C4.98317 2.54567 5.69351 3.25601 5.69351 4.13221C5.69351 5.00481 4.98317 5.71875 4.10697 5.71875ZM15.732 15.732H12.9952V11.4483C12.9952 10.4279 12.9772 9.11178 11.5709 9.11178C10.1466 9.11178 9.93029 10.226 9.93029 11.3762V15.732H7.19712V6.91947H9.82212V8.1238H9.85817C10.2224 7.43149 11.1166 6.69952 12.4471 6.69952C15.22 6.69952 15.732 8.52404 15.732 10.8966V15.732Z"/></symbol><symbol viewBox="0 0 18 22" id="icon-location"><path fill-rule="evenodd" clip-rule="evenodd" d="M9 2C5.13401 2 2 5.13401 2 9C2 11.7398 3.43931 13.2321 5.26764 14.7657C5.45903 14.9262 5.65793 15.0889 5.86116 15.255C6.94372 16.1402 8.14947 17.1262 9 18.4318C9.85053 17.1262 11.0563 16.1402 12.1388 15.255C12.3421 15.0889 12.541 14.9262 12.7324 14.7657C14.5607 13.2321 16 11.7398 16 9C16 5.13401 12.866 2 9 2ZM0 9C0 4.02944 4.02944 0 9 0C13.9706 0 18 4.02944 18 9C18 12.6785 15.9393 14.6862 14.0176 16.298C13.8145 16.4684 13.6153 16.6333 13.4208 16.7943C11.7005 18.2182 10.3531 19.3335 9.98058 21.1961C9.8871 21.6635 9.47668 22 9 22C8.52332 22 8.1129 21.6635 8.01942 21.1961C7.6469 19.3335 6.29947 18.2182 4.57915 16.7943C4.38469 16.6333 4.18547 16.4684 3.98236 16.298C2.06069 14.6862 0 12.6785 0 9ZM9 7C7.89543 7 7 7.89543 7 9C7 10.1046 7.89543 11 9 11C10.1046 11 11 10.1046 11 9C11 7.89543 10.1046 7 9 7ZM5 9C5 6.79086 6.79086 5 9 5C11.2091 5 13 6.79086 13 9C13 11.2091 11.2091 13 9 13C6.79086 13 5 11.2091 5 9Z"/></symbol><symbol viewBox="0 0 36 40" fill="none" id="icon-logo" xmlns="http://www.w3.org/2000/svg"><path d="M35.6379 22.0675V28.0071C35.6379 28.0755 35.6366 28.144 35.6325 28.2124 35.6312 28.2259 35.6312 28.2406 35.6299 28.254 35.6272 28.2943 35.6245 28.3346 35.6205 28.3762 35.6164 28.4165 35.6124 28.4567 35.607 28.497 35.603 28.5359 35.5963 28.5748 35.5909 28.6124 35.5815 28.6702 35.5721 28.7265 35.5601 28.7842 35.5534 28.8205 35.5453 28.8554 35.5372 28.8916 35.5292 28.9225 35.5211 28.9547 35.5131 28.9869 35.5064 29.0165 35.4983 29.0446 35.4889 29.0742 35.4527 29.2044 35.4084 29.3332 35.3574 29.4594 35.3466 29.4863 35.3359 29.5144 35.3238 29.5413 35.293 29.6151 35.2594 29.6876 35.2232 29.7587 35.2057 29.795 35.1869 29.8299 35.1681 29.8648L35.1668 29.8634 28.4473 26.1238 17.9238 20.2661 25.8379 16.6232 35.4956 21.9896 35.6379 22.0675ZM35.5194 10.9829 33.471 12.5615 31.6576 15.4125 14.416 5.81515 20.9677 1.21381 24.9274 3.50105H24.9288L32.1851 7.69032 33.6872 8.55743C34.612 9.09166 35.2643 9.97219 35.5194 10.9829Z" fill="currentColor"/><path d="M24.9275 3.50101 0 17.7815V11.9373C0 10.5426.743624 9.25403 1.95034 8.55738L15.8685.522483C17.0752-.174161 18.5624-.174161 19.7705.522483L24.9275 3.50101ZM35.6376 11.9373V13.9655L3.43758 32.246 1.95034 31.387C.743624 30.689 0 29.4017 0 28.0071V25.9829L32.1852 7.69031 33.6872 8.55742C34.894 9.25407 35.6376 10.5427 35.6376 11.9373ZM35.6384 21.9064V28.007C35.6384 28.0755 35.637 28.144 35.633 28.2124 35.6316 28.2258 35.6316 28.2406 35.6303 28.254 35.6276 28.2943 35.6249 28.3346 35.6209 28.3762 35.6169 28.4164 35.6129 28.4567 35.6075 28.497 35.6035 28.5359 35.5967 28.5748 35.5914 28.6124 35.582 28.6701 35.5726 28.7265 35.5605 28.7842 35.5538 28.8205 35.5457 28.8554 35.5377 28.8916 35.5296 28.9225 35.5216 28.9547 35.5135 28.9869 35.5068 29.0164 35.4988 29.0446 35.4894 29.0742 35.4531 29.2044 35.4088 29.3332 35.3578 29.4594 35.3471 29.4862 35.3363 29.5144 35.3243 29.5413 35.2934 29.6151 35.2598 29.6876 35.2236 29.7587 35.2061 29.795 35.1873 29.8299 35.1686 29.8648 35.1471 29.9037 35.1256 29.9426 35.1028 29.9802 35.0813 30.0191 35.0571 30.0567 35.0343 30.0943 34.986 30.1681 34.9363 30.2419 34.884 30.3131 34.8303 30.3856 34.7753 30.4554 34.7189 30.5225 34.6894 30.5574 34.6598 30.5909 34.6303 30.6232 34.6008 30.6567 34.5699 30.6889 34.539 30.7211 34.4773 30.7856 34.4129 30.8487 34.3457 30.9077 34.3202 30.9319 34.2934 30.9547 34.2665 30.9775 34.2504 30.9909 34.2343 31.0044 34.2182 31.0178 34.186 31.046 34.1525 31.0728 34.1175 31.0983 34.084 31.1252 34.0504 31.1507 34.0142 31.1748 33.9471 31.2245 33.8773 31.2715 33.8061 31.3158 33.7672 31.3399 33.7283 31.3641 33.688 31.3869L19.7712 39.4218C18.5632 40.1185 17.0759 40.1185 15.8692 39.4218L10.7793 36.4836 28.4478 26.1238 35.4961 21.9896 35.6384 21.9064Z" fill="currentColor"/><path d="M6.99866 5.64331V34.301L3.43758 32.246L1.95034 31.3869C0.743624 30.6889 0 29.4017 0 28.0071V11.9373C0 10.5426 0.743624 9.25405 1.95034 8.5574L6.99866 5.64331Z" fill="currentColor"/><defs><linearGradient id="appaint0_linear_4581_10430" x1="34.5641" y1="26.4433" x2="20.2688" y2="16.6446" gradientUnits="userSpaceOnUse"><stop stop-color="currentColor"/><stop offset="1" stop-color="currentColor" stop-opacity="0"/></linearGradient><linearGradient id="appaint1_linear_4581_10430" x1="32.2147" y1="12.8863" x2="19.2617" y2="4.49702" gradientUnits="userSpaceOnUse"><stop stop-color="currentColor"/><stop offset="1" stop-color="currentColor" stop-opacity="0"/></linearGradient></defs></symbol><symbol viewBox="0 0 188 42" fill="none" id="icon-logo_blue" xmlns="http://www.w3.org/2000/svg"><g clip-path="url(#aqclip0_4453_7151)"><path d="M35.6379 23.0675V29.0071C35.6379 29.0755 35.6366 29.144 35.6325 29.2124 35.6312 29.2259 35.6312 29.2406 35.6299 29.254 35.6272 29.2943 35.6245 29.3346 35.6205 29.3762 35.6164 29.4165 35.6124 29.4567 35.607 29.497 35.603 29.5359 35.5963 29.5748 35.5909 29.6124 35.5815 29.6702 35.5721 29.7265 35.5601 29.7842 35.5534 29.8205 35.5453 29.8554 35.5372 29.8916 35.5292 29.9225 35.5211 29.9547 35.5131 29.9869 35.5064 30.0165 35.4983 30.0446 35.4889 30.0742 35.4527 30.2044 35.4084 30.3332 35.3574 30.4594 35.3466 30.4863 35.3359 30.5144 35.3238 30.5413 35.293 30.6151 35.2594 30.6876 35.2232 30.7587 35.2057 30.795 35.1869 30.8299 35.1681 30.8648L35.1668 30.8634 28.4473 27.1238 17.9238 21.2661 25.8379 17.6232 35.4956 22.9896 35.6379 23.0675ZM35.5194 11.9829 33.471 13.5615 31.6576 16.4125 14.416 6.81515 20.9677 2.21381 24.9274 4.50105H24.9288L32.1851 8.69032 33.6872 9.55743C34.612 10.0917 35.2643 10.9722 35.5194 11.9829Z" fill="currentColor"/><path d="M24.9275 4.50101 0 18.7815V12.9373C0 11.5426.743624 10.254 1.95034 9.55738L15.8685 1.52248C17.0752.825839 18.5624.825839 19.7705 1.52248L24.9275 4.50101ZM35.6376 12.9373V14.9655L3.43758 33.246 1.95034 32.387C.743624 31.689 0 30.4017 0 29.0071V26.9829L32.1852 8.69031 33.6872 9.55742C34.894 10.2541 35.6376 11.5427 35.6376 12.9373ZM35.6384 22.9064V29.007C35.6384 29.0755 35.637 29.144 35.633 29.2124 35.6316 29.2258 35.6316 29.2406 35.6303 29.254 35.6276 29.2943 35.6249 29.3346 35.6209 29.3762 35.6169 29.4164 35.6129 29.4567 35.6075 29.497 35.6035 29.5359 35.5967 29.5748 35.5914 29.6124 35.582 29.6701 35.5726 29.7265 35.5605 29.7842 35.5538 29.8205 35.5457 29.8554 35.5377 29.8916 35.5296 29.9225 35.5216 29.9547 35.5135 29.9869 35.5068 30.0164 35.4988 30.0446 35.4894 30.0742 35.4531 30.2044 35.4088 30.3332 35.3578 30.4594 35.3471 30.4862 35.3363 30.5144 35.3243 30.5413 35.2934 30.6151 35.2598 30.6876 35.2236 30.7587 35.2061 30.795 35.1873 30.8299 35.1686 30.8648 35.1471 30.9037 35.1256 30.9426 35.1028 30.9802 35.0813 31.0191 35.0571 31.0567 35.0343 31.0943 34.986 31.1681 34.9363 31.2419 34.884 31.3131 34.8303 31.3856 34.7753 31.4554 34.7189 31.5225 34.6894 31.5574 34.6598 31.5909 34.6303 31.6232 34.6008 31.6567 34.5699 31.6889 34.539 31.7211 34.4773 31.7856 34.4129 31.8487 34.3457 31.9077 34.3202 31.9319 34.2934 31.9547 34.2665 31.9775 34.2504 31.9909 34.2343 32.0044 34.2182 32.0178 34.186 32.046 34.1525 32.0728 34.1175 32.0983 34.084 32.1252 34.0504 32.1507 34.0142 32.1748 33.9471 32.2245 33.8773 32.2715 33.8061 32.3158 33.7672 32.3399 33.7283 32.3641 33.688 32.3869L19.7712 40.4218C18.5632 41.1185 17.0759 41.1185 15.8692 40.4218L10.7793 37.4836 28.4478 27.1238 35.4961 22.9896 35.6384 22.9064Z" fill="currentColor"/><path d="M6.99866 6.64331V35.301L3.43758 33.246L1.95034 32.3869C0.743624 31.6889 0 30.4017 0 29.0071V12.9373C0 11.5426 0.743624 10.254 1.95034 9.5574L6.99866 6.64331Z" fill="currentColor"/></g><path d="M71.0719 26.528C71.0719 28.2346 70.5386 29.5253 69.4719 30.4 68.4266 31.2746 66.5706 31.712 63.9039 31.712H53.9199V11.456H63.5839C65.3546 11.456 66.7306 11.648 67.7119 12.032 68.7146 12.3946 69.4186 12.9386 69.8239 13.664 70.2293 14.3893 70.4319 15.296 70.4319 16.384 70.4319 17.8773 70.0693 19.04 69.3439 19.872 68.6399 20.6826 67.3066 21.1733 65.3439 21.344V21.44C66.7946 21.5466 67.9359 21.792 68.7679 22.176 69.5999 22.5386 70.1866 23.072 70.5279 23.776 70.8906 24.48 71.0719 25.3973 71.0719 26.528ZM62.1759 15.488H59.0399V19.456H62.1759C63.2213 19.456 63.9786 19.328 64.4479 19.072 64.9173 18.7946 65.1519 18.2613 65.1519 17.472 65.1519 16.704 64.9173 16.1813 64.4479 15.904 63.9786 15.6266 63.2213 15.488 62.1759 15.488ZM62.8159 23.648H59.0399V27.712H62.8159C63.8613 27.712 64.6186 27.5733 65.0879 27.296 65.5573 26.9973 65.7919 26.4533 65.7919 25.664 65.7919 24.8533 65.5573 24.32 65.0879 24.064 64.6186 23.7866 63.8613 23.648 62.8159 23.648ZM79.0712 31.712H73.9512V11.456H79.0712V31.712ZM96.0399 11.456H101.16V31.712H96.0719L90.3119 23.136C89.8639 22.4533 89.4906 21.8773 89.1919 21.408 88.8933 20.9386 88.6159 20.4693 88.3599 20 88.1039 19.5306 87.8159 18.976 87.4959 18.336L87.3999 18.464C87.6986 19.488 87.8799 20.448 87.9439 21.344 88.0079 22.2186 88.0399 23.072 88.0399 23.904V31.712H82.9199V11.456H88.0079L93.7679 20.032C94.2159 20.6933 94.5893 21.2693 94.8879 21.76 95.1866 22.2293 95.4639 22.6986 95.7199 23.168 95.9759 23.6373 96.2639 24.192 96.5839 24.832L96.6799 24.704C96.4666 23.808 96.3066 22.944 96.1999 22.112 96.0933 21.2586 96.0399 20.416 96.0399 19.584V11.456ZM123.574 31.616V31.712H118.134C117.984 31.2 117.803 30.6133 117.59 29.952 117.398 29.2906 117.184 28.5866 116.95 27.84H110.038C109.611 29.3333 109.216 30.624 108.854 31.712H103.414V31.648L109.974 11.456H117.014L123.574 31.616ZM113.43 15.104C113.216 16.192 112.907 17.5146 112.502 19.072 112.096 20.6293 111.67 22.2186 111.222 23.84H115.798C115.328 22.2186 114.891 20.6293 114.486 19.072 114.08 17.5146 113.771 16.192 113.558 15.104H113.43ZM142.978 26.528C142.978 28.2346 142.445 29.5253 141.378 30.4 140.333 31.2746 138.477 31.712 135.81 31.712H125.826V11.456H135.49C137.261 11.456 138.637 11.648 139.618 12.032 140.621 12.3946 141.325 12.9386 141.73 13.664 142.136 14.3893 142.338 15.296 142.338 16.384 142.338 17.8773 141.976 19.04 141.25 19.872 140.546 20.6826 139.213 21.1733 137.25 21.344V21.44C138.701 21.5466 139.842 21.792 140.674 22.176 141.506 22.5386 142.093 23.072 142.434 23.776 142.797 24.48 142.978 25.3973 142.978 26.528ZM134.082 15.488H130.946V19.456H134.082C135.128 19.456 135.885 19.328 136.354 19.072 136.824 18.7946 137.058 18.2613 137.058 17.472 137.058 16.704 136.824 16.1813 136.354 15.904 135.885 15.6266 135.128 15.488 134.082 15.488ZM134.722 23.648H130.946V27.712H134.722C135.768 27.712 136.525 27.5733 136.994 27.296 137.464 26.9973 137.698 26.4533 137.698 25.664 137.698 24.8533 137.464 24.32 136.994 24.064 136.525 23.7866 135.768 23.648 134.722 23.648ZM145.217 21.568C145.217 18.9866 145.505 16.9386 146.081 15.424 146.679 13.9093 147.692 12.8213 149.121 12.16 150.572 11.4986 152.588 11.168 155.169 11.168 157.111 11.168 158.721 11.3493 160.001 11.712 161.281 12.0746 162.295 12.6613 163.041 13.472 163.788 14.2826 164.311 15.36 164.609 16.704 164.929 18.0266 165.089 19.648 165.089 21.568 165.089 23.5093 164.929 25.152 164.609 26.496 164.311 27.8186 163.788 28.8853 163.041 29.696 162.295 30.5066 161.281 31.0933 160.001 31.456 158.721 31.8186 157.111 32 155.169 32 153.228 32 151.617 31.8186 150.337 31.456 149.057 31.0933 148.044 30.5066 147.297 29.696 146.551 28.8853 146.017 27.8186 145.697 26.496 145.377 25.152 145.217 23.5093 145.217 21.568ZM155.169 27.52C156.535 27.52 157.559 27.3493 158.241 27.008 158.924 26.6666 159.383 26.0693 159.617 25.216 159.852 24.3413 159.969 23.1253 159.969 21.568 159.969 20.032 159.852 18.8373 159.617 17.984 159.383 17.1306 158.924 16.5333 158.241 16.192 157.559 15.8293 156.535 15.648 155.169 15.648 153.825 15.648 152.801 15.8293 152.097 16.192 151.415 16.5333 150.945 17.1306 150.689 17.984 150.455 18.8373 150.337 20.032 150.337 21.568 150.337 23.1253 150.455 24.3413 150.689 25.216 150.945 26.0693 151.415 26.6666 152.097 27.008 152.801 27.3493 153.825 27.52 155.169 27.52ZM181.351 21.376 187.271 31.712H180.871L177.191 24.544H177.095L173.415 31.712H167.015L172.935 21.376V21.216L167.399 11.456H173.703L177.095 18.496H177.191L180.583 11.456H186.887L181.351 21.216V21.376Z" fill="currentColor"/><defs><linearGradient id="aqpaint0_linear_4453_7151" x1="34.5641" y1="27.4433" x2="20.2688" y2="17.6446" gradientUnits="userSpaceOnUse"><stop stop-color="currentColor"/><stop offset="1" stop-color="currentColor" stop-opacity="0"/></linearGradient><linearGradient id="aqpaint1_linear_4453_7151" x1="32.2147" y1="13.8863" x2="19.2617" y2="5.49702" gradientUnits="userSpaceOnUse"><stop stop-color="currentColor"/><stop offset="1" stop-color="currentColor" stop-opacity="0"/></linearGradient><clipPath id="aqclip0_4453_7151"><rect width="36" height="40" fill="currentColor" transform="translate(0 1)"/></clipPath></defs></symbol><symbol viewBox="0 0 36 40" fill="none" id="icon-logo_graph" xmlns="http://www.w3.org/2000/svg"><g clip-path="url(#arclip0_4581_10428)"><path d="M35.6379 22.0675V28.0071C35.6379 28.0755 35.6366 28.144 35.6325 28.2124 35.6312 28.2259 35.6312 28.2406 35.6299 28.254 35.6272 28.2943 35.6245 28.3346 35.6205 28.3762 35.6164 28.4165 35.6124 28.4567 35.607 28.497 35.603 28.5359 35.5963 28.5748 35.5909 28.6124 35.5815 28.6702 35.5721 28.7265 35.5601 28.7842 35.5534 28.8205 35.5453 28.8554 35.5372 28.8916 35.5292 28.9225 35.5211 28.9547 35.5131 28.9869 35.5064 29.0165 35.4983 29.0446 35.4889 29.0742 35.4527 29.2044 35.4084 29.3332 35.3574 29.4594 35.3466 29.4863 35.3359 29.5144 35.3238 29.5413 35.293 29.6151 35.2594 29.6876 35.2232 29.7587 35.2057 29.795 35.1869 29.8299 35.1681 29.8648L35.1668 29.8634 28.4473 26.1238 17.9238 20.2661 25.8379 16.6232 35.4956 21.9896 35.6379 22.0675ZM35.5194 10.9829 33.471 12.5615 31.6576 15.4125 14.416 5.81515 20.9677 1.21381 24.9274 3.50105H24.9288L32.1851 7.69032 33.6872 8.55743C34.612 9.09166 35.2643 9.97219 35.5194 10.9829Z" fill="currentColor"/><path d="M24.9275 3.50101 0 17.7815V11.9373C0 10.5426.743624 9.25403 1.95034 8.55738L15.8685.522483C17.0752-.174161 18.5624-.174161 19.7705.522483L24.9275 3.50101ZM35.6376 11.9373V13.9655L3.43758 32.246 1.95034 31.387C.743624 30.689 0 29.4017 0 28.0071V25.9829L32.1852 7.69031 33.6872 8.55742C34.894 9.25407 35.6376 10.5427 35.6376 11.9373ZM35.6384 21.9064V28.007C35.6384 28.0755 35.637 28.144 35.633 28.2124 35.6316 28.2258 35.6316 28.2406 35.6303 28.254 35.6276 28.2943 35.6249 28.3346 35.6209 28.3762 35.6169 28.4164 35.6129 28.4567 35.6075 28.497 35.6035 28.5359 35.5967 28.5748 35.5914 28.6124 35.582 28.6701 35.5726 28.7265 35.5605 28.7842 35.5538 28.8205 35.5457 28.8554 35.5377 28.8916 35.5296 28.9225 35.5216 28.9547 35.5135 28.9869 35.5068 29.0164 35.4988 29.0446 35.4894 29.0742 35.4531 29.2044 35.4088 29.3332 35.3578 29.4594 35.3471 29.4862 35.3363 29.5144 35.3243 29.5413 35.2934 29.6151 35.2598 29.6876 35.2236 29.7587 35.2061 29.795 35.1873 29.8299 35.1686 29.8648 35.1471 29.9037 35.1256 29.9426 35.1028 29.9802 35.0813 30.0191 35.0571 30.0567 35.0343 30.0943 34.986 30.1681 34.9363 30.2419 34.884 30.3131 34.8303 30.3856 34.7753 30.4554 34.7189 30.5225 34.6894 30.5574 34.6598 30.5909 34.6303 30.6232 34.6008 30.6567 34.5699 30.6889 34.539 30.7211 34.4773 30.7856 34.4129 30.8487 34.3457 30.9077 34.3202 30.9319 34.2934 30.9547 34.2665 30.9775 34.2504 30.9909 34.2343 31.0044 34.2182 31.0178 34.186 31.046 34.1525 31.0728 34.1175 31.0983 34.084 31.1252 34.0504 31.1507 34.0142 31.1748 33.9471 31.2245 33.8773 31.2715 33.8061 31.3158 33.7672 31.3399 33.7283 31.3641 33.688 31.3869L19.7712 39.4218C18.5632 40.1185 17.0759 40.1185 15.8692 39.4218L10.7793 36.4836 28.4478 26.1238 35.4961 21.9896 35.6384 21.9064Z" fill="currentColor"/><path d="M6.99866 5.64331V34.301L3.43758 32.246L1.95034 31.3869C0.743624 30.6889 0 29.4017 0 28.0071V11.9373C0 10.5426 0.743624 9.25405 1.95034 8.5574L6.99866 5.64331Z" fill="currentColor"/></g><defs><linearGradient id="arpaint0_linear_4581_10428" x1="34.5641" y1="26.4433" x2="20.2688" y2="16.6446" gradientUnits="userSpaceOnUse"><stop stop-color="currentColor"/><stop offset="1" stop-color="currentColor" stop-opacity="0"/></linearGradient><linearGradient id="arpaint1_linear_4581_10428" x1="32.2147" y1="12.8863" x2="19.2617" y2="4.49702" gradientUnits="userSpaceOnUse"><stop stop-color="currentColor"/><stop offset="1" stop-color="currentColor" stop-opacity="0"/></linearGradient><clipPath id="arclip0_4581_10428"><rect width="36" height="40" fill="currentColor"/></clipPath></defs></symbol><symbol viewBox="0 0 188 42" fill="none" id="icon-logo_white" xmlns="http://www.w3.org/2000/svg"><g clip-path="url(#asclip0_1_2740)"><path d="M35.6379 23.0675V29.0071C35.6379 29.0755 35.6366 29.144 35.6325 29.2124 35.6312 29.2259 35.6312 29.2406 35.6299 29.254 35.6272 29.2943 35.6245 29.3346 35.6205 29.3762 35.6164 29.4165 35.6124 29.4567 35.607 29.497 35.603 29.5359 35.5963 29.5748 35.5909 29.6124 35.5815 29.6702 35.5721 29.7265 35.5601 29.7842 35.5534 29.8205 35.5453 29.8554 35.5372 29.8916 35.5292 29.9225 35.5211 29.9547 35.5131 29.9869 35.5064 30.0165 35.4983 30.0446 35.4889 30.0742 35.4527 30.2044 35.4084 30.3332 35.3574 30.4594 35.3466 30.4863 35.3359 30.5144 35.3238 30.5413 35.293 30.6151 35.2594 30.6876 35.2232 30.7587 35.2057 30.795 35.1869 30.8299 35.1681 30.8648L35.1668 30.8634 28.4473 27.1238 17.9238 21.2661 25.8379 17.6232 35.4956 22.9896 35.6379 23.0675ZM35.5194 11.9829 33.471 13.5615 31.6576 16.4125 14.416 6.81515 20.9677 2.21381 24.9274 4.50105H24.9288L32.1851 8.69032 33.6872 9.55743C34.612 10.0917 35.2643 10.9722 35.5194 11.9829Z" fill="currentColor"/><path d="M24.9275 4.50101 0 18.7815V12.9373C0 11.5426.743624 10.254 1.95034 9.55738L15.8685 1.52248C17.0752.825839 18.5624.825839 19.7705 1.52248L24.9275 4.50101ZM35.6376 12.9373V14.9655L3.43758 33.246 1.95034 32.387C.743624 31.689 0 30.4017 0 29.0071V26.9829L32.1852 8.69031 33.6872 9.55742C34.894 10.2541 35.6376 11.5427 35.6376 12.9373ZM35.6384 22.9064V29.007C35.6384 29.0755 35.637 29.144 35.633 29.2124 35.6316 29.2258 35.6316 29.2406 35.6303 29.254 35.6276 29.2943 35.6249 29.3346 35.6209 29.3762 35.6169 29.4164 35.6129 29.4567 35.6075 29.497 35.6035 29.5359 35.5967 29.5748 35.5914 29.6124 35.582 29.6701 35.5726 29.7265 35.5605 29.7842 35.5538 29.8205 35.5457 29.8554 35.5377 29.8916 35.5296 29.9225 35.5216 29.9547 35.5135 29.9869 35.5068 30.0164 35.4988 30.0446 35.4894 30.0742 35.4531 30.2044 35.4088 30.3332 35.3578 30.4594 35.3471 30.4862 35.3363 30.5144 35.3243 30.5413 35.2934 30.6151 35.2598 30.6876 35.2236 30.7587 35.2061 30.795 35.1873 30.8299 35.1686 30.8648 35.1471 30.9037 35.1256 30.9426 35.1028 30.9802 35.0813 31.0191 35.0571 31.0567 35.0343 31.0943 34.986 31.1681 34.9363 31.2419 34.884 31.3131 34.8303 31.3856 34.7753 31.4554 34.7189 31.5225 34.6894 31.5574 34.6598 31.5909 34.6303 31.6232 34.6008 31.6567 34.5699 31.6889 34.539 31.7211 34.4773 31.7856 34.4129 31.8487 34.3457 31.9077 34.3202 31.9319 34.2934 31.9547 34.2665 31.9775 34.2504 31.9909 34.2343 32.0044 34.2182 32.0178 34.186 32.046 34.1525 32.0728 34.1175 32.0983 34.084 32.1252 34.0504 32.1507 34.0142 32.1748 33.9471 32.2245 33.8773 32.2715 33.8061 32.3158 33.7672 32.3399 33.7283 32.3641 33.688 32.3869L19.7712 40.4218C18.5632 41.1185 17.0759 41.1185 15.8692 40.4218L10.7793 37.4836 28.4478 27.1238 35.4961 22.9896 35.6384 22.9064Z" fill="currentColor"/><path d="M6.99866 6.64331V35.301L3.43758 33.246L1.95034 32.3869C0.743624 31.6889 0 30.4017 0 29.0071V12.9373C0 11.5426 0.743624 10.254 1.95034 9.5574L6.99866 6.64331Z" fill="currentColor"/></g><path d="M71.0719 26.528C71.0719 28.2346 70.5386 29.5253 69.4719 30.4 68.4266 31.2746 66.5706 31.712 63.9039 31.712H53.9199V11.456H63.5839C65.3546 11.456 66.7306 11.648 67.7119 12.032 68.7146 12.3946 69.4186 12.9386 69.8239 13.664 70.2293 14.3893 70.4319 15.296 70.4319 16.384 70.4319 17.8773 70.0693 19.04 69.3439 19.872 68.6399 20.6826 67.3066 21.1733 65.3439 21.344V21.44C66.7946 21.5466 67.9359 21.792 68.7679 22.176 69.5999 22.5386 70.1866 23.072 70.5279 23.776 70.8906 24.48 71.0719 25.3973 71.0719 26.528ZM62.1759 15.488H59.0399V19.456H62.1759C63.2213 19.456 63.9786 19.328 64.4479 19.072 64.9173 18.7946 65.1519 18.2613 65.1519 17.472 65.1519 16.704 64.9173 16.1813 64.4479 15.904 63.9786 15.6266 63.2213 15.488 62.1759 15.488ZM62.8159 23.648H59.0399V27.712H62.8159C63.8613 27.712 64.6186 27.5733 65.0879 27.296 65.5573 26.9973 65.7919 26.4533 65.7919 25.664 65.7919 24.8533 65.5573 24.32 65.0879 24.064 64.6186 23.7866 63.8613 23.648 62.8159 23.648ZM79.0712 31.712H73.9512V11.456H79.0712V31.712ZM96.0399 11.456H101.16V31.712H96.0719L90.3119 23.136C89.8639 22.4533 89.4906 21.8773 89.1919 21.408 88.8933 20.9386 88.6159 20.4693 88.3599 20 88.1039 19.5306 87.8159 18.976 87.4959 18.336L87.3999 18.464C87.6986 19.488 87.8799 20.448 87.9439 21.344 88.0079 22.2186 88.0399 23.072 88.0399 23.904V31.712H82.9199V11.456H88.0079L93.7679 20.032C94.2159 20.6933 94.5893 21.2693 94.8879 21.76 95.1866 22.2293 95.4639 22.6986 95.7199 23.168 95.9759 23.6373 96.2639 24.192 96.5839 24.832L96.6799 24.704C96.4666 23.808 96.3066 22.944 96.1999 22.112 96.0933 21.2586 96.0399 20.416 96.0399 19.584V11.456ZM123.574 31.616V31.712H118.134C117.984 31.2 117.803 30.6133 117.59 29.952 117.398 29.2906 117.184 28.5866 116.95 27.84H110.038C109.611 29.3333 109.216 30.624 108.854 31.712H103.414V31.648L109.974 11.456H117.014L123.574 31.616ZM113.43 15.104C113.216 16.192 112.907 17.5146 112.502 19.072 112.096 20.6293 111.67 22.2186 111.222 23.84H115.798C115.328 22.2186 114.891 20.6293 114.486 19.072 114.08 17.5146 113.771 16.192 113.558 15.104H113.43ZM142.978 26.528C142.978 28.2346 142.445 29.5253 141.378 30.4 140.333 31.2746 138.477 31.712 135.81 31.712H125.826V11.456H135.49C137.261 11.456 138.637 11.648 139.618 12.032 140.621 12.3946 141.325 12.9386 141.73 13.664 142.136 14.3893 142.338 15.296 142.338 16.384 142.338 17.8773 141.976 19.04 141.25 19.872 140.546 20.6826 139.213 21.1733 137.25 21.344V21.44C138.701 21.5466 139.842 21.792 140.674 22.176 141.506 22.5386 142.093 23.072 142.434 23.776 142.797 24.48 142.978 25.3973 142.978 26.528ZM134.082 15.488H130.946V19.456H134.082C135.128 19.456 135.885 19.328 136.354 19.072 136.824 18.7946 137.058 18.2613 137.058 17.472 137.058 16.704 136.824 16.1813 136.354 15.904 135.885 15.6266 135.128 15.488 134.082 15.488ZM134.722 23.648H130.946V27.712H134.722C135.768 27.712 136.525 27.5733 136.994 27.296 137.464 26.9973 137.698 26.4533 137.698 25.664 137.698 24.8533 137.464 24.32 136.994 24.064 136.525 23.7866 135.768 23.648 134.722 23.648ZM145.217 21.568C145.217 18.9866 145.505 16.9386 146.081 15.424 146.679 13.9093 147.692 12.8213 149.121 12.16 150.572 11.4986 152.588 11.168 155.169 11.168 157.111 11.168 158.721 11.3493 160.001 11.712 161.281 12.0746 162.295 12.6613 163.041 13.472 163.788 14.2826 164.311 15.36 164.609 16.704 164.929 18.0266 165.089 19.648 165.089 21.568 165.089 23.5093 164.929 25.152 164.609 26.496 164.311 27.8186 163.788 28.8853 163.041 29.696 162.295 30.5066 161.281 31.0933 160.001 31.456 158.721 31.8186 157.111 32 155.169 32 153.228 32 151.617 31.8186 150.337 31.456 149.057 31.0933 148.044 30.5066 147.297 29.696 146.551 28.8853 146.017 27.8186 145.697 26.496 145.377 25.152 145.217 23.5093 145.217 21.568ZM155.169 27.52C156.535 27.52 157.559 27.3493 158.241 27.008 158.924 26.6666 159.383 26.0693 159.617 25.216 159.852 24.3413 159.969 23.1253 159.969 21.568 159.969 20.032 159.852 18.8373 159.617 17.984 159.383 17.1306 158.924 16.5333 158.241 16.192 157.559 15.8293 156.535 15.648 155.169 15.648 153.825 15.648 152.801 15.8293 152.097 16.192 151.415 16.5333 150.945 17.1306 150.689 17.984 150.455 18.8373 150.337 20.032 150.337 21.568 150.337 23.1253 150.455 24.3413 150.689 25.216 150.945 26.0693 151.415 26.6666 152.097 27.008 152.801 27.3493 153.825 27.52 155.169 27.52ZM181.351 21.376 187.271 31.712H180.871L177.191 24.544H177.095L173.415 31.712H167.015L172.935 21.376V21.216L167.399 11.456H173.703L177.095 18.496H177.191L180.583 11.456H186.887L181.351 21.216V21.376Z" fill="currentColor"/><defs><linearGradient id="aspaint0_linear_1_2740" x1="34.5641" y1="27.4433" x2="20.2688" y2="17.6446" gradientUnits="userSpaceOnUse"><stop stop-color="currentColor"/><stop offset="1" stop-color="currentColor" stop-opacity="0"/></linearGradient><linearGradient id="aspaint1_linear_1_2740" x1="32.2147" y1="13.8863" x2="19.2617" y2="5.49702" gradientUnits="userSpaceOnUse"><stop stop-color="currentColor"/><stop offset="1" stop-color="currentColor" stop-opacity="0"/></linearGradient><clipPath id="asclip0_1_2740"><rect width="36" height="40" fill="currentColor" transform="translate(0 1)"/></clipPath></defs></symbol><symbol viewBox="0 0 19 20" id="icon-men"><path fill-rule="evenodd" clip-rule="evenodd" d="M9.35727 2C7.42428 2 5.85727 3.567 5.85727 5.5C5.85727 7.433 7.42428 9 9.35727 9C11.2903 9 12.8573 7.433 12.8573 5.5C12.8573 3.567 11.2903 2 9.35727 2ZM3.85727 5.5C3.85727 2.46243 6.31971 0 9.35727 0C12.3948 0 14.8573 2.46243 14.8573 5.5C14.8573 8.53757 12.3948 11 9.35727 11C6.31971 11 3.85727 8.53757 3.85727 5.5ZM9.35727 14C6.51824 14 3.98776 15.3693 2.37112 17.5088C2.27222 17.6397 2.19653 17.74 2.13357 17.8281C2.08577 17.895 2.05316 17.9442 2.03044 17.9814C2.17907 17.9984 2.39084 18 2.78451 18H15.93C16.3237 18 16.5355 17.9984 16.6841 17.9814C16.6614 17.9442 16.6288 17.895 16.581 17.8281C16.518 17.74 16.4423 17.6397 16.3434 17.5088C14.7268 15.3693 12.1963 14 9.35727 14ZM0.775418 16.3031C2.74838 13.692 5.85615 12 9.35727 12C12.8584 12 15.9662 13.692 17.9391 16.3031C17.948 16.3149 17.957 16.3268 17.966 16.3387C18.1356 16.563 18.3175 16.8035 18.4475 17.0356C18.6048 17.3165 18.7215 17.6414 18.7142 18.0366C18.7084 18.3542 18.6122 18.6516 18.4953 18.8864C18.3784 19.1212 18.1992 19.3772 17.9493 19.5734C17.6159 19.835 17.253 19.9276 16.9306 19.9662C16.6478 20.0001 16.3126 20.0001 15.9756 20C15.9604 20 15.9452 20 15.93 20H2.78451C2.76932 20 2.75412 20 2.73893 20C2.40194 20.0001 2.06676 20.0001 1.78392 19.9662C1.46153 19.9276 1.09862 19.835 0.765297 19.5734C0.515351 19.3772 0.336124 19.1212 0.219249 18.8864C0.102373 18.6516 0.00612779 18.3542 0.00031842 18.0366C-0.00690858 17.6414 0.1097 17.3165 0.267035 17.0356C0.397019 16.8035 0.578909 16.563 0.748543 16.3387C0.757539 16.3268 0.7665 16.3149 0.775418 16.3031Z"/></symbol><symbol viewBox="0 0 16 2" id="icon-minus"><path d="M1 1H15" stroke="currentColor" stroke-width="2" stroke-linecap="round" stroke-linejoin="round"/></symbol><symbol viewBox="0 0 16 16" id="icon-plus"><path fill-rule="evenodd" clip-rule="evenodd" d="M8 0C8.55228 0 9 0.447715 9 1V7H15C15.5523 7 16 7.44772 16 8C16 8.55228 15.5523 9 15 9H9V15C9 15.5523 8.55228 16 8 16C7.44772 16 7 15.5523 7 15V9H1C0.447715 9 0 8.55228 0 8C0 7.44772 0.447715 7 1 7H7V1C7 0.447715 7.44772 0 8 0Z"/></symbol><symbol viewBox="0 0 20 20" id="icon-search"><path fill-rule="evenodd" clip-rule="evenodd" d="M9 2C5.13401 2 2 5.13401 2 9C2 12.866 5.13401 16 9 16C10.8859 16 12.5977 15.2542 13.8564 14.0414C13.8827 14.0072 13.9115 13.9742 13.9429 13.9429C13.9742 13.9115 14.0072 13.8827 14.0414 13.8564C15.2542 12.5977 16 10.8859 16 9C16 5.13401 12.866 2 9 2ZM16.0319 14.6177C17.2635 13.078 18 11.125 18 9C18 4.02944 13.9706 0 9 0C4.02944 0 0 4.02944 0 9C0 13.9706 4.02944 18 9 18C11.125 18 13.078 17.2635 14.6177 16.0319L18.2929 19.7071C18.6834 20.0976 19.3166 20.0976 19.7071 19.7071C20.0976 19.3166 20.0976 18.6834 19.7071 18.2929L16.0319 14.6177Z"/></symbol><symbol viewBox="0 0 24 24" id="icon-star"><path fill-rule="evenodd" clip-rule="evenodd" d="M4.5 1C5.05228 1 5.5 1.44772 5.5 2V3.5H7C7.55228 3.5 8 3.94772 8 4.5C8 5.05228 7.55228 5.5 7 5.5H5.5V7C5.5 7.55228 5.05228 8 4.5 8C3.94772 8 3.5 7.55228 3.5 7V5.5H2C1.44772 5.5 1 5.05228 1 4.5C1 3.94772 1.44772 3.5 2 3.5H3.5V2C3.5 1.44772 3.94772 1 4.5 1ZM13 2C13.4138 2 13.7848 2.25483 13.9333 2.64102L15.6675 7.14988C15.9679 7.93093 16.0623 8.156 16.1914 8.33759C16.321 8.5198 16.4802 8.67899 16.6624 8.80855C16.844 8.93768 17.0691 9.03207 17.8501 9.33248L22.359 11.0667C22.7452 11.2152 23 11.5862 23 12C23 12.4138 22.7452 12.7848 22.359 12.9333L17.8501 14.6675C17.0691 14.9679 16.844 15.0623 16.6624 15.1914C16.4802 15.321 16.321 15.4802 16.1914 15.6624C16.0623 15.844 15.9679 16.0691 15.6675 16.8501L13.9333 21.359C13.7848 21.7452 13.4138 22 13 22C12.5862 22 12.2152 21.7452 12.0667 21.359L10.3325 16.8501C10.0321 16.0691 9.93768 15.844 9.80855 15.6624C9.67899 15.4802 9.5198 15.321 9.33759 15.1914C9.156 15.0623 8.93093 14.9679 8.14988 14.6675L3.64102 12.9333C3.25483 12.7848 3 12.4138 3 12C3 11.5862 3.25483 11.2152 3.64102 11.0667L8.14988 9.33248C8.93093 9.03207 9.156 8.93768 9.33759 8.80855C9.5198 8.67899 9.67899 8.5198 9.80855 8.33759C9.93768 8.156 10.0321 7.93093 10.3325 7.14988L12.0667 2.64102C12.2152 2.25483 12.5862 2 13 2ZM13 5.78568L12.1992 7.86784C12.1859 7.90232 12.1728 7.93634 12.1599 7.96993C11.9164 8.60419 11.7324 9.0833 11.4385 9.49658C11.1794 9.861 10.861 10.1794 10.4966 10.4385C10.0833 10.7324 9.60419 10.9164 8.96993 11.1599C8.93634 11.1728 8.90231 11.1859 8.86784 11.1992L6.78568 12L8.86784 12.8008C8.90232 12.8141 8.93634 12.8272 8.96993 12.8401C9.60419 13.0836 10.0833 13.2676 10.4966 13.5615C10.861 13.8206 11.1794 14.139 11.4385 14.5034C11.7324 14.9167 11.9164 15.3958 12.1599 16.0301C12.1728 16.0637 12.1859 16.0977 12.1992 16.1322L13 18.2143L13.8008 16.1322C13.8141 16.0977 13.8272 16.0637 13.8401 16.0301C14.0836 15.3958 14.2676 14.9167 14.5615 14.5034C14.8206 14.139 15.139 13.8206 15.5034 13.5615C15.9167 13.2676 16.3958 13.0836 17.0301 12.8401C17.0637 12.8272 17.0977 12.8141 17.1322 12.8008L19.2143 12L17.1322 11.1992C17.0977 11.1859 17.0636 11.1728 17.03 11.1599C16.3958 10.9164 15.9167 10.7324 15.5034 10.4385C15.139 10.1794 14.8206 9.861 14.5615 9.49658C14.2676 9.0833 14.0836 8.60419 13.8401 7.96993C13.8272 7.93634 13.8141 7.90232 13.8008 7.86784L13 5.78568ZM4.5 16C5.05228 16 5.5 16.4477 5.5 17V18.5H7C7.55228 18.5 8 18.9477 8 19.5C8 20.0523 7.55228 20.5 7 20.5H5.5V22C5.5 22.5523 5.05228 23 4.5 23C3.94772 23 3.5 22.5523 3.5 22V20.5H2C1.44772 20.5 1 20.0523 1 19.5C1 18.9477 1.44772 18.5 2 18.5H3.5V17C3.5 16.4477 3.94772 16 4.5 16Z"/></symbol><symbol viewBox="0 0 24 20" id="icon-telegram"><path d="M23.5468 0.266482C23.1374 -0.0417345 22.4944 -0.0858346 21.8295 0.151143H21.8285C21.1292 0.400236 2.03537 7.67143 1.25808 7.9685C1.11671 8.01211 -0.118008 8.42113 0.00917513 9.33221C0.122712 10.1536 1.11507 10.4938 1.23625 10.5331L6.0905 12.0087C6.41255 12.9605 7.59977 16.4721 7.86233 17.2223C8.02608 17.6899 8.293 18.3044 8.7608 18.4309C9.17128 18.5714 9.57957 18.443 9.84376 18.2589L12.8116 15.8149L17.6025 19.1321L17.7166 19.1927C18.0419 19.3206 18.3536 19.3846 18.6511 19.3846C18.8809 19.3846 19.1014 19.3463 19.3121 19.2698C20.0299 19.0081 20.317 18.4008 20.347 18.332L23.9256 1.81774C24.144 0.935738 23.8405 0.486982 23.5468 0.266482ZM10.3716 12.599L8.73405 16.4759L7.0965 11.6298L19.6511 3.39129L10.3716 12.599Z"/></symbol><symbol viewBox="0 0 19 19" id="icon-tiktok"><path d="M16.2637 0H2.1978C0.985934 0 0 0.985934 0 2.1978V16.2637C0 17.4756 0.985934 18.4615 2.1978 18.4615H16.2637C17.4756 18.4615 18.4615 17.4756 18.4615 16.2637V2.1978C18.4615 0.985934 17.4756 0 16.2637 0ZM14.5081 8.05407C14.4084 8.0633 14.3073 8.06945 14.2048 8.06945C13.0519 8.06945 12.0387 7.47648 11.4492 6.58022C11.4492 8.93143 11.4492 11.6066 11.4492 11.6514C11.4492 13.7213 9.77099 15.3996 7.7011 15.3996C5.63121 15.3996 3.95297 13.7213 3.95297 11.6514C3.95297 9.58154 5.63121 7.9033 7.7011 7.9033C7.77934 7.9033 7.85582 7.91033 7.93275 7.91516V9.7622C7.85582 9.75297 7.78022 9.7389 7.7011 9.7389C6.6444 9.7389 5.78813 10.5952 5.78813 11.6519C5.78813 12.7086 6.6444 13.5648 7.7011 13.5648C8.7578 13.5648 9.69099 12.7323 9.69099 11.6756C9.69099 11.6338 9.70945 3.06286 9.70945 3.06286H11.4747C11.6409 4.64132 12.9152 5.88703 14.5081 6.00132V8.05407Z"/></symbol><symbol viewBox="0 0 20 17" id="icon-twitter"><path d="M17.6441 2.68054C18.5012 2.14436 19.1425 1.30009 19.4483 0.305353C18.6429 0.805406 17.7618 1.15766 16.8429 1.34687C15.569 -0.0633047 13.5505 -0.406478 11.9155 0.509111C10.2804 1.4247 9.4335 3.37238 9.84798 5.26384C6.54901 5.09052 3.47544 3.45985 1.3921 0.777589C0.304847 2.73999 0.860458 5.24861 2.66182 6.51046C2.01043 6.48855 1.37348 6.30399 0.804092 5.97219C0.804092 5.9902 0.804092 6.00821 0.804092 6.02622C0.804469 8.07039 2.18125 9.8312 4.09599 10.2363C3.49179 10.4083 2.85802 10.4337 2.24304 10.3104C2.78153 12.0585 4.32121 13.2561 6.07611 13.2919C4.62265 14.4856 2.82769 15.1329 0.980017 15.1298C0.65252 15.1303 0.32528 15.1106 0 15.0707C1.87627 16.3324 4.06002 17.0021 6.29028 16.9997C9.39311 17.022 12.375 15.742 14.569 13.446C16.763 11.1499 17.986 8.02947 17.9644 4.78259C17.9644 4.5965 17.9603 4.41141 17.952 4.22732C18.7556 3.61961 19.4491 2.86678 20 2.0042C19.2514 2.35144 18.4573 2.57941 17.6441 2.68054Z"/></symbol><symbol viewBox="0 0 14 8" id="icon-up"><path fill-rule="evenodd" clip-rule="evenodd" d="M0.292893 7.70711C-0.0976311 7.31658 -0.0976311 6.68342 0.292893 6.29289L6.29289 0.292893C6.68342 -0.0976315 7.31658 -0.0976315 7.70711 0.292893L13.7071 6.29289C14.0976 6.68342 14.0976 7.31658 13.7071 7.70711C13.3166 8.09763 12.6834 8.09763 12.2929 7.70711L7 2.41421L1.70711 7.70711C1.31658 8.09763 0.683417 8.09763 0.292893 7.70711Z"/></symbol><symbol viewBox="0 0 20 20" id="icon-wallet"><path fill-rule="evenodd" clip-rule="evenodd" d="M3 2C2.44772 2 2 2.44772 2 3C2 3.55228 2.44772 4 3 4L17 4C18.6569 4 20 5.34315 20 7V17C20 18.6569 18.6569 20 17 20H3C1.34315 20 0 18.6569 0 17V3C0 1.34315 1.34315 0 3 0H15C15.5523 0 16 0.447715 16 1C16 1.55228 15.5523 2 15 2H3ZM2 5.82929V17C2 17.5523 2.44772 18 3 18H17C17.5523 18 18 17.5523 18 17V7C18 6.44772 17.5523 6 17 6L3 6C2.64936 6 2.31278 5.93985 2 5.82929ZM13 12C13 11.1716 13.6716 10.5 14.5 10.5C15.3284 10.5 16 11.1716 16 12C16 12.8284 15.3284 13.5 14.5 13.5C13.6716 13.5 13 12.8284 13 12Z"/></symbol><symbol viewBox="0 0 24 17" id="icon-youtube"><path d="M23.2523 2.92188C23.0312 1.75354 21.9776 0.90271 20.7549 0.637085C18.9253 0.265625 15.5391 0 11.8755 0C8.21396 0 4.77359 0.265625 2.94177 0.637085C1.72127 0.90271 0.665529 1.69959 0.444408 2.92188C0.22112 4.25 0 6.10938 0 8.5C0 10.8906 0.22112 12.75 0.498605 14.0781C0.721892 15.2465 1.77547 16.0973 2.99596 16.3629C4.93835 16.7344 8.26816 17 11.9318 17C15.5955 17 18.9253 16.7344 20.8677 16.3629C22.0882 16.0973 23.1417 15.3004 23.365 14.0781C23.5862 12.75 23.8636 10.8367 23.92 8.5C23.8073 6.10938 23.5298 4.25 23.2523 2.92188ZM8.87949 12.2188V4.78125L15.6497 8.5L8.87949 12.2188Z"/></symbol></svg>