<svg xmlns="http://www.w3.org/2000/svg" xmlns:xlink="http://www.w3.org/1999/xlink"><symbol viewBox="0 0 22 16" id="icon-discord"><path d="M19.2752 2.02667C17.7615 0.746667 15.945 0.106667 14.0275 0L13.7248 0.32C15.4404 0.746667 16.9541 1.6 18.367 2.77333C16.6514 1.81333 14.7339 1.17333 12.7156 0.96C12.1101 0.853333 11.6055 0.853333 11 0.853333C10.3945 0.853333 9.88991 0.853333 9.2844 0.96C7.26606 1.17333 5.34862 1.81333 3.63303 2.77333C5.04587 1.6 6.55963 0.746667 8.27523 0.32L7.97248 0C6.05505 0.106667 4.23853 0.746667 2.72477 2.02667C1.00917 5.44 0.100917 9.28 0 13.2267C1.51376 14.9333 3.63303 16 5.85321 16C5.85321 16 6.55963 15.1467 7.06422 14.4C5.75229 14.08 4.54128 13.3333 3.73395 12.16C4.44037 12.5867 5.14679 13.0133 5.85321 13.3333C6.76147 13.76 7.66972 13.9733 8.57798 14.1867C9.38532 14.2933 10.1927 14.4 11 14.4C11.8073 14.4 12.6147 14.2933 13.422 14.1867C14.3303 13.9733 15.2385 13.76 16.1468 13.3333C16.8532 13.0133 17.5596 12.5867 18.2661 12.16C17.4587 13.3333 16.2477 14.08 14.9358 14.4C15.4404 15.1467 16.1468 16 16.1468 16C18.367 16 20.4862 14.9333 22 13.2267C21.8991 9.28 20.9908 5.44 19.2752 2.02667ZM7.66972 11.3067C6.66055 11.3067 5.75229 10.3467 5.75229 9.17333C5.75229 8 6.66055 7.04 7.66972 7.04C8.6789 7.04 9.58716 8 9.58716 9.17333C9.58716 10.3467 8.6789 11.3067 7.66972 11.3067ZM14.3303 11.3067C13.3211 11.3067 12.4128 10.3467 12.4128 9.17333C12.4128 8 13.3211 7.04 14.3303 7.04C15.3394 7.04 16.2477 8 16.2477 9.17333C16.2477 10.3467 15.3394 11.3067 14.3303 11.3067Z"/></symbol><symbol viewBox="0 0 24 24" fill="none" stroke="currentColor" stroke-width="2" stroke-linecap="round" stroke-linejoin="round" id="icon-example" xmlns="http://www.w3.org/2000/svg"><circle cx="12" cy="12" r="10"/><line x1="12" y1="8" x2="12" y2="16"/><line x1="8" y1="12" x2="16" y2="12"/></symbol><symbol viewBox="0 0 20 20" fill="none" id="icon-icon_search" xmlns="http://www.w3.org/2000/svg"><path fill-rule="evenodd" clip-rule="evenodd" d="M9 2C5.13401 2 2 5.13401 2 9C2 12.866 5.13401 16 9 16C10.8859 16 12.5977 15.2542 13.8564 14.0414C13.8827 14.0072 13.9115 13.9742 13.9429 13.9429C13.9742 13.9115 14.0072 13.8827 14.0414 13.8564C15.2542 12.5977 16 10.8859 16 9C16 5.13401 12.866 2 9 2ZM16.0319 14.6177C17.2635 13.078 18 11.125 18 9C18 4.02944 13.9706 0 9 0C4.02944 0 0 4.02944 0 9C0 13.9706 4.02944 18 9 18C11.125 18 13.078 17.2635 14.6177 16.0319L18.2929 19.7071C18.6834 20.0976 19.3166 20.0976 19.7071 19.7071C20.0976 19.3166 20.0976 18.6834 19.7071 18.2929L16.0319 14.6177Z" fill="currentColor"/></symbol><symbol viewBox="0 0 36 26" id="icon-logo"><path d="M35.6376 4.93728V6.96547L3.43758 25.246L1.95034 24.3869C0.743624 23.689 0 22.4017 0 21.0071V18.9829L32.1852 0.6903L33.6872 1.55741C34.894 2.25406 35.6376 3.54265 35.6376 4.93728Z"/></symbol></svg>